<?xml version="1.0" encoding="UTF-8"?>
<svg id="Layer_1" data-name="Layer 1" xmlns="http://www.w3.org/2000/svg" viewBox="0 0 500 250">
  <defs>
    <style>
      .cls-1 {
        fill: #211e1f;
      }

      .cls-2 {
        fill: #fff;
      }

      .cls-3 {
        fill: #076ca5;
      }
    </style>
  </defs>
  <g>
    <path class="cls-3" d="M480.89,201.66h-207.12c-7.27,0-13.19-5.92-13.19-13.19v-74.05c0-5.76,3.35-12.45,7.97-15.91l100.14-74.46c2.5-1.89,5.77-2.93,9.21-2.93s6.67,1.05,9.25,2.95l99.01,74.43c4.52,3.41,7.94,10.26,7.94,15.92v74.05c0,7.28-5.92,13.19-13.2,13.19"/>
    <path class="cls-2" d="M355.64,118.32v50.59c0,9.72-7.74,12.32-12.32,12.32-6.12,0-12.32-4.23-12.32-12.32v-.72h-5v.72c0,9.72-7.75,12.32-12.32,12.32-6.13,0-12.32-4.23-12.32-12.32v-.72h-30.58v-8.88h15.07c.88-2.86,1.53-5.51,1.53-9.54,0-17.42-11.52-26.69-15.31-29.74l-2.13-1.72h13.56l.29.29c7.93,8.02,12.47,19.38,12.47,31.17,0,3.41-.32,6.54-.97,9.54h6.07v-40.99h8.97v48.9c0,3.19.23,5.13,3.35,5.13,2.94,0,3.35-2.46,3.35-5.13v-48.9h8.97v40.99h5v-40.99h8.97v48.9c0,3.19.22,5.13,3.35,5.13,2.95,0,3.35-2.46,3.35-5.13v-48.9h8.96ZM413.87,105.28l-.39.4c-11.01,11.14-17.33,26.92-17.33,43.29,0,4.91.45,9.17,1.43,13.25h-9.3c.96-4.05,1.43-8.41,1.43-13.25,0-16.37-6.32-32.15-17.33-43.29l-.39-.4h-19.04l3.05,2.4c14.1,11.1,21.25,25,21.25,41.3,0,21.38-12.6,33.18-19.38,39.51-.73.68-1.4,1.31-1.98,1.88l-2.35,2.3h18.48l.4-.44c4.98-5.51,8.89-11.45,11.62-17.67h17.66c2.87,6.3,6.81,12.25,11.73,17.67l.4.44h18.49l-2.35-2.3c-.58-.57-1.25-1.2-1.98-1.88-6.77-6.34-19.37-18.14-19.37-39.51,0-16.3,7.15-30.19,21.25-41.3l3.04-2.4h-19.04ZM430.44,123.76v45.15c0,8.09,6.2,12.32,12.31,12.32,4.58,0,12.32-2.59,12.32-12.32v-.72h5.01v.72c0,8.09,6.2,12.32,12.32,12.32,4.58,0,12.32-2.59,12.32-12.32v-50.59h-8.97v48.9c0,2.66-.4,5.13-3.35,5.13-3.12,0-3.35-1.94-3.35-5.13v-48.9h-8.97v40.99h-5.01v-40.99h-8.97v48.9c0,2.66-.41,5.13-3.35,5.13-3.12,0-3.34-1.94-3.34-5.13v-49.81l-8.97,6.35ZM447.26,105.36h-8.18v8.08h8.18v-8.08ZM476.48,184.59h-8.18v8.08h8.18v-8.08ZM347.42,184.59h-8.18v8.08h8.18v-8.08ZM323.94,184.59h-8.18v8.08h8.18v-8.08ZM311.76,184.59h-8.18v8.08h8.18v-8.08Z"/>
  </g>
  <g>
    <path class="cls-3" d="M17.98,164.36l-12.35,27.81h6.6l2.48-5.96h12.88l2.48,5.96h6.75l-12.47-27.81h-6.36ZM16.73,181.32l4.41-10.6,4.41,10.6h-8.82Z"/>
    <polygon class="cls-3" points="46.19 164.36 39.71 164.36 39.71 192.17 60.05 192.17 60.05 186.92 46.19 186.92 46.19 164.36"/>
    <path class="cls-3" d="M83.65,164.36l-12.35,27.81h6.6l2.48-5.96h12.88l2.48,5.96h6.75l-12.47-27.81h-6.36ZM82.4,181.32l4.41-10.6,4.41,10.6h-8.82Z"/>
    <path class="cls-3" d="M127.66,193.84c-.64,0-1.24-.13-1.81-.38-.57-.25-1.16-.67-1.77-1.25-.12-.11-.24-.24-.36-.36.26-.08.52-.16.78-.25,1.84-.7,3.45-1.7,4.83-3,1.38-1.3,2.44-2.83,3.2-4.59.75-1.76,1.13-3.67,1.13-5.74s-.38-4.01-1.13-5.76c-.75-1.75-1.82-3.27-3.2-4.57-1.38-1.3-2.99-2.3-4.83-3-1.84-.7-3.86-1.05-6.06-1.05s-4.22.36-6.06,1.07c-1.84.72-3.45,1.72-4.83,3.02-1.38,1.3-2.44,2.81-3.2,4.55-.75,1.74-1.13,3.65-1.13,5.74s.38,3.97,1.13,5.72,1.82,3.27,3.2,4.57c1.38,1.3,2.99,2.3,4.85,3.02,1.19.46,2.46.76,3.78.92.9.92,1.73,1.72,2.5,2.4,1.01.89,1.98,1.6,2.92,2.13.94.53,1.89.92,2.86,1.17.97.25,1.99.38,3.08.38,3.12,0,5.63-1.14,7.51-3.42l-2.86-3.42c-1.32,1.4-2.83,2.11-4.53,2.11ZM112.23,184.7c-.78-.79-1.39-1.74-1.83-2.84-.44-1.1-.66-2.3-.66-3.6s.22-2.53.66-3.61c.44-1.09,1.05-2.03,1.83-2.82.78-.79,1.7-1.41,2.76-1.85,1.06-.44,2.21-.66,3.46-.66s2.39.22,3.44.66c1.05.44,1.97,1.05,2.76,1.85.79.79,1.41,1.74,1.85,2.82.44,1.09.66,2.29.66,3.61s-.22,2.5-.66,3.6c-.44,1.1-1.05,2.05-1.85,2.84-.79.79-1.71,1.41-2.76,1.85-1.05.44-2.19.66-3.44.66s-2.4-.22-3.46-.66-1.98-1.05-2.76-1.85Z"/>
    <path class="cls-3" d="M146.81,164.36l-12.35,27.81h6.59l2.48-5.96h12.88l2.48,5.96h6.75l-12.47-27.81h-6.36ZM145.56,181.32l4.41-10.6,4.41,10.6h-8.82Z"/>
    <path class="cls-3" d="M187.01,183.21c1.8-.78,3.19-1.92,4.17-3.42s1.47-3.29,1.47-5.38c0-3.12-1.07-5.58-3.22-7.37-2.15-1.79-5.15-2.68-9.02-2.68h-11.88v27.81h6.47v-7.79h5.56c.1,0,.18-.01.28-.01l5.4,7.8h6.91l-6.2-8.94s.03,0,.04-.01ZM184.66,170.85c1.01.83,1.51,2.02,1.51,3.55s-.5,2.73-1.51,3.58c-1.01.85-2.49,1.27-4.45,1.27h-5.2v-9.65h5.2c1.96,0,3.44.42,4.45,1.25Z"/>
    <rect class="cls-3" x="197.73" y="164.36" width="6.48" height="27.81"/>
    <path class="cls-3" d="M231.54,192.17h6.75l-12.47-27.81h-6.36l-12.35,27.81h6.59l2.48-5.96h12.88l2.48,5.96ZM218.21,181.32l4.41-10.6,4.41,10.6h-8.82Z"/>
  </g>
  <g>
    <path class="cls-3" d="M14.84,121.75c1.72,0,3.2-1.03,3.2-2.96,0-1.72-1.4-2.91-3.2-2.91s-3.2,1.19-3.2,2.91c0,1.93,1.48,2.96,3.2,2.96Z"/>
    <path class="cls-3" d="M23.75,121.75c1.72,0,3.2-1.03,3.2-2.96,0-1.72-1.35-2.91-3.2-2.91s-3.2,1.19-3.2,2.91c0,1.93,1.48,2.96,3.2,2.96Z"/>
    <path class="cls-3" d="M95.39,126.84h-5.75v17.36H27.2v-19.42h-5.75v2.05h-.82c-8.82,0-14.04,4.93-14.04,11.57,0,7.8,5.87,11.53,14.04,11.53h74.75v-23.11ZM21.45,144.2h-2.5c-3.41,0-6.61-2.01-6.61-5.79s3.53-5.83,6.9-5.83h2.22v11.62Z"/>
    <path class="cls-3" d="M94.52,152.82c-1.81,0-3.2,1.19-3.2,2.96,0,1.89,1.48,2.91,3.2,2.91s3.2-1.03,3.2-2.91c0-1.76-1.35-2.96-3.2-2.96Z"/>
    <path class="cls-3" d="M85.62,152.82c-1.81,0-3.2,1.19-3.2,2.96,0,1.89,1.48,2.91,3.2,2.91s3.2-1.03,3.2-2.91c0-1.76-1.4-2.96-3.2-2.96Z"/>
    <path class="cls-3" d="M105.57,149.2c0,2.83-.78,4.02-3.08,4.02-.86,0-1.64-.08-2.71-.37l.41,5.75c.7.21,1.85.37,2.91.37,5.87,0,8.21-3.16,8.21-10.59v-21.55h-5.75v22.37Z"/>
    <path class="cls-3" d="M155.03,123.35c1.72,0,3.2-1.03,3.2-2.96,0-1.72-1.4-2.91-3.2-2.91s-3.2,1.19-3.2,2.91c0,1.93,1.48,2.96,3.2,2.96Z"/>
    <path class="cls-3" d="M163.94,123.35c1.72,0,3.2-1.03,3.2-2.96,0-1.72-1.35-2.91-3.2-2.91s-3.2,1.19-3.2,2.91c0,1.93,1.48,2.96,3.2,2.96Z"/>
    <path class="cls-3" d="M218.33,144.2h-10.76l4.93-13.01c-3.78-3.45-7.88-5.87-12.64-5.87s-8.66,2.42-12.6,5.83l5.09,13.05h-24.43v-17.36h-6.77c-8.21,0-13.79,4.31-13.79,11.53,0,2.34.78,4.27,1.97,5.83h-24.47v-27.54h-5.75v33.29h104.97v-33.29h-5.75v27.54ZM162.17,144.2h-5.95c-1.89-1.31-3.12-3.32-3.12-5.83,0-3.78,3.33-5.79,6.65-5.79h2.42v11.62ZM202.36,144.2h-4.93l-3.74-10.59c2.09-1.52,3.9-2.22,6.16-2.22s3.94.62,6.24,2.18l-3.74,10.63Z"/>
    <rect class="cls-3" x="232.5" y="116.66" width="5.75" height="33.29"/>
  </g>
  <g>
    <path class="cls-1" d="M9.64,218.78h-3v-1.09h7.23v1.09h-3v7.65h-1.24v-7.65Z"/>
    <path class="cls-1" d="M21.07,226.43l-1.89-2.68c-.23.02-.42.03-.55.03h-2.16v2.66h-1.25v-8.74h3.41c1.13,0,2.02.27,2.67.81.65.54.97,1.29.97,2.23,0,.67-.17,1.25-.5,1.72-.33.47-.81.82-1.42,1.04l2.07,2.93h-1.36ZM20.41,222.2c.42-.34.62-.83.62-1.46s-.21-1.12-.62-1.45c-.42-.34-1.02-.51-1.81-.51h-2.12v3.93h2.12c.79,0,1.39-.17,1.81-.51Z"/>
    <path class="cls-1" d="M29.88,224.25h-4.64l-.96,2.18h-1.29l3.96-8.74h1.24l3.97,8.74h-1.31l-.96-2.18ZM29.44,223.25l-1.89-4.28-1.89,4.28h3.77Z"/>
    <path class="cls-1" d="M33.45,217.69h3.68c.92,0,1.74.18,2.46.55.72.37,1.27.88,1.67,1.54.4.66.59,1.42.59,2.28s-.2,1.62-.59,2.28c-.4.66-.95,1.18-1.67,1.54-.72.37-1.54.55-2.46.55h-3.68v-8.74ZM37.05,225.35c.71,0,1.33-.14,1.87-.41.54-.27.95-.66,1.24-1.15.29-.49.44-1.07.44-1.72s-.15-1.22-.44-1.72-.7-.88-1.24-1.15c-.54-.27-1.16-.41-1.87-.41h-2.36v6.57h2.36Z"/>
    <path class="cls-1" d="M43.76,217.69h1.25v8.74h-1.25v-8.74Z"/>
    <path class="cls-1" d="M55.14,217.69v8.74h-1.02l-5.24-6.52v6.52h-1.25v-8.74h1.02l5.24,6.52v-6.52h1.25Z"/>
    <path class="cls-1" d="M63.82,222.01h1.2v3.41c-.43.36-.94.63-1.51.82-.57.19-1.17.29-1.8.29-.88,0-1.68-.19-2.38-.58-.71-.39-1.26-.92-1.67-1.6s-.61-1.44-.61-2.29.2-1.61.61-2.3.96-1.21,1.67-1.6,1.51-.57,2.4-.57c.7,0,1.33.11,1.9.34.57.23,1.06.56,1.45,1l-.77.77c-.7-.67-1.54-1.01-2.53-1.01-.67,0-1.26.14-1.79.43-.53.29-.94.69-1.24,1.2-.3.51-.45,1.09-.45,1.73s.15,1.2.45,1.72.71.91,1.24,1.2,1.12.44,1.78.44c.78,0,1.46-.19,2.05-.56v-2.85Z"/>
    <path class="cls-1" d="M77.15,226.57l-1.16-1.16c-.77.75-1.75,1.12-2.92,1.12-.58,0-1.11-.1-1.57-.29-.47-.19-.83-.46-1.09-.81-.26-.35-.39-.74-.39-1.18,0-.53.16-1,.49-1.42.33-.41.87-.83,1.63-1.27-.38-.38-.65-.73-.81-1.04-.16-.31-.24-.63-.24-.96,0-.59.21-1.07.64-1.42s1-.54,1.72-.54c.67,0,1.19.16,1.59.49.39.32.59.77.59,1.34,0,.44-.14.84-.43,1.19s-.76.72-1.43,1.1l2.16,2.15c.25-.47.43-1,.54-1.59l.96.31c-.15.77-.4,1.43-.76,2l1.17,1.17-.67.8ZM75.28,224.71l-2.48-2.47c-.6.33-1.02.64-1.25.93-.24.29-.36.61-.36.97,0,.42.18.75.54,1.01.36.26.83.39,1.42.39.86,0,1.58-.27,2.13-.82ZM72.53,218.79c-.22.2-.33.45-.33.77,0,.22.06.44.18.65s.36.49.71.85c.57-.32.97-.6,1.19-.84.22-.23.33-.49.33-.76,0-.29-.1-.52-.31-.7-.2-.17-.49-.26-.86-.26-.39,0-.7.1-.92.29Z"/>
    <path class="cls-1" d="M84.22,225.95c-.7-.39-1.25-.92-1.65-1.6-.4-.68-.6-1.44-.6-2.29s.2-1.61.6-2.29c.4-.68.95-1.21,1.66-1.6s1.5-.58,2.37-.58c.68,0,1.31.11,1.87.34.57.23,1.05.57,1.45,1.02l-.81.79c-.66-.69-1.48-1.04-2.46-1.04-.65,0-1.24.15-1.76.44s-.93.69-1.23,1.2c-.3.51-.44,1.08-.44,1.72s.15,1.2.44,1.72.71.91,1.23,1.2,1.11.44,1.76.44c.97,0,1.79-.35,2.46-1.05l.81.79c-.4.45-.88.79-1.45,1.02-.57.23-1.2.35-1.88.35-.87,0-1.66-.19-2.37-.58Z"/>
    <path class="cls-1" d="M93.08,225.95c-.71-.39-1.26-.92-1.67-1.6-.4-.68-.61-1.44-.61-2.28s.2-1.6.61-2.28.96-1.22,1.67-1.6c.71-.39,1.5-.58,2.38-.58s1.66.19,2.37.58,1.26.92,1.66,1.6c.4.68.6,1.44.6,2.29s-.2,1.61-.6,2.29c-.4.68-.95,1.21-1.66,1.6s-1.5.58-2.37.58-1.68-.19-2.38-.58ZM97.19,224.98c.51-.29.92-.69,1.21-1.2s.44-1.08.44-1.72-.15-1.2-.44-1.72c-.3-.51-.7-.91-1.21-1.2s-1.09-.44-1.73-.44-1.22.15-1.74.44-.93.69-1.22,1.2c-.3.51-.44,1.08-.44,1.72s.15,1.2.44,1.72.7.91,1.22,1.2,1.1.44,1.74.44,1.22-.15,1.73-.44Z"/>
    <path class="cls-1" d="M109.52,217.69v8.74h-1.02l-5.24-6.52v6.52h-1.25v-8.74h1.02l5.24,6.52v-6.52h1.25Z"/>
    <path class="cls-1" d="M113.88,218.78h-3v-1.09h7.23v1.09h-3v7.65h-1.24v-7.65Z"/>
    <path class="cls-1" d="M125.31,226.43l-1.89-2.68c-.23.02-.42.03-.55.03h-2.16v2.66h-1.25v-8.74h3.41c1.13,0,2.02.27,2.67.81.65.54.97,1.29.97,2.23,0,.67-.17,1.25-.5,1.72-.33.47-.81.82-1.42,1.04l2.07,2.93h-1.36ZM124.65,222.2c.42-.34.62-.83.62-1.46s-.21-1.12-.62-1.45c-.42-.34-1.02-.51-1.81-.51h-2.12v3.93h2.12c.79,0,1.39-.17,1.81-.51Z"/>
    <path class="cls-1" d="M134.11,224.25h-4.64l-.96,2.18h-1.29l3.96-8.74h1.24l3.97,8.74h-1.31l-.96-2.18ZM133.68,223.25l-1.89-4.28-1.89,4.28h3.77Z"/>
    <path class="cls-1" d="M139.1,225.95c-.7-.39-1.25-.92-1.65-1.6-.4-.68-.6-1.44-.6-2.29s.2-1.61.6-2.29c.4-.68.95-1.21,1.66-1.6s1.5-.58,2.37-.58c.68,0,1.31.11,1.87.34.57.23,1.05.57,1.45,1.02l-.81.79c-.66-.69-1.48-1.04-2.46-1.04-.65,0-1.24.15-1.76.44s-.93.69-1.23,1.2c-.3.51-.44,1.08-.44,1.72s.15,1.2.44,1.72.71.91,1.23,1.2,1.11.44,1.76.44c.97,0,1.79-.35,2.46-1.05l.81.79c-.4.45-.88.79-1.45,1.02-.57.23-1.2.35-1.88.35-.87,0-1.66-.19-2.37-.58Z"/>
    <path class="cls-1" d="M148.22,218.78h-3v-1.09h7.23v1.09h-3v7.65h-1.24v-7.65Z"/>
    <path class="cls-1" d="M153.81,217.69h1.25v8.74h-1.25v-8.74Z"/>
    <path class="cls-1" d="M165.2,217.69v8.74h-1.02l-5.24-6.52v6.52h-1.25v-8.74h1.02l5.24,6.52v-6.52h1.25Z"/>
    <path class="cls-1" d="M173.87,222.01h1.2v3.41c-.43.36-.94.63-1.51.82-.57.19-1.17.29-1.8.29-.88,0-1.68-.19-2.38-.58-.71-.39-1.26-.92-1.67-1.6s-.61-1.44-.61-2.29.2-1.61.61-2.3.96-1.21,1.67-1.6,1.51-.57,2.4-.57c.7,0,1.33.11,1.9.34.57.23,1.06.56,1.45,1l-.77.77c-.7-.67-1.54-1.01-2.53-1.01-.67,0-1.26.14-1.79.43-.53.29-.94.69-1.24,1.2-.3.51-.45,1.09-.45,1.73s.15,1.2.45,1.72c.3.51.71.91,1.24,1.2s1.12.44,1.78.44c.78,0,1.46-.19,2.05-.56v-2.85Z"/>
    <path class="cls-1" d="M182.36,225.95c-.7-.39-1.25-.92-1.65-1.6-.4-.68-.6-1.44-.6-2.29s.2-1.61.6-2.29c.4-.68.95-1.21,1.66-1.6s1.5-.58,2.37-.58c.68,0,1.31.11,1.87.34.57.23,1.05.57,1.45,1.02l-.81.79c-.66-.69-1.48-1.04-2.46-1.04-.65,0-1.24.15-1.76.44s-.93.69-1.23,1.2c-.3.51-.44,1.08-.44,1.72s.15,1.2.44,1.72.71.91,1.23,1.2,1.11.44,1.76.44c.97,0,1.79-.35,2.46-1.05l.81.79c-.4.45-.88.79-1.45,1.02-.57.23-1.2.35-1.88.35-.87,0-1.66-.19-2.37-.58Z"/>
    <path class="cls-1" d="M190.73,226.07c-.52-.29-.93-.69-1.23-1.2s-.44-1.09-.44-1.74.15-1.23.44-1.74.7-.91,1.23-1.2c.52-.29,1.12-.43,1.77-.43s1.25.14,1.77.43c.52.29.93.69,1.22,1.2s.44,1.09.44,1.74-.15,1.23-.44,1.74-.7.91-1.22,1.2c-.52.29-1.11.44-1.77.44s-1.25-.15-1.77-.44ZM193.64,225.17c.34-.2.6-.47.79-.82s.29-.76.29-1.22-.1-.86-.29-1.22-.46-.63-.79-.82c-.34-.19-.72-.29-1.14-.29s-.81.1-1.14.29c-.34.19-.6.46-.8.82-.2.35-.29.76-.29,1.22s.1.86.29,1.22c.2.35.46.63.8.82.34.2.72.29,1.14.29s.81-.1,1.14-.29Z"/>
    <path class="cls-1" d="M197.28,226.26c-.17-.16-.25-.37-.25-.62s.08-.44.25-.61c.17-.16.37-.24.6-.24s.43.08.59.24.24.36.24.61-.08.46-.24.62c-.16.16-.36.24-.58.24s-.43-.08-.6-.24Z"/>
    <path class="cls-1" d="M216.31,217.69l-2.92,8.74h-1.31l-2.38-6.98-2.38,6.98h-1.34l-2.92-8.74h1.29l2.36,7.1,2.46-7.1h1.15l2.41,7.14,2.41-7.14h1.19Z"/>
    <path class="cls-1" d="M217.07,226.26c-.17-.16-.25-.37-.25-.62s.08-.44.25-.61c.17-.16.37-.24.6-.24s.43.08.59.24.24.36.24.61-.08.46-.24.62c-.16.16-.36.24-.58.24s-.43-.08-.6-.24Z"/>
    <path class="cls-1" d="M220.39,217.69h1.25v7.65h4.73v1.09h-5.98v-8.74Z"/>
    <path class="cls-1" d="M227.69,226.26c-.17-.16-.25-.37-.25-.62s.08-.44.25-.61c.17-.16.37-.24.6-.24s.43.08.59.24.24.36.24.61-.08.46-.24.62c-.16.16-.36.24-.58.24s-.43-.08-.6-.24Z"/>
    <path class="cls-1" d="M231.01,217.69h1.25v7.65h4.73v1.09h-5.98v-8.74Z"/>
  </g>
  <g>
    <g>
      <path class="cls-1" d="M267.91,219.49c-1.07,0-1.98.35-2.74,1.06-.35.33-.63.71-.84,1.16-.21.45-.33.87-.35,1.26-.38,0-.78.09-1.18.25s-.75.4-1.04.74-.51.74-.64,1.2c-.14.47-.21,1.07-.21,1.8v1.91h.94v-2.28c0-.81.18-1.45.55-1.93.18-.23.41-.41.7-.54.29-.13.58-.2.89-.21.03.39.14.8.35,1.25s.48.83.83,1.16c.73.7,1.62,1.05,2.68,1.05s2.04-.38,2.8-1.13c.76-.75,1.13-1.69,1.13-2.81s-.38-2.06-1.13-2.81c-.75-.75-1.66-1.13-2.73-1.13ZM269.98,225.58c-.57.56-1.28.84-2.15.84s-1.51-.29-2.07-.87c-.56-.58-.84-1.28-.84-2.12s.27-1.54.82-2.13c.55-.58,1.25-.88,2.1-.88s1.57.28,2.14.84c.57.56.85,1.28.85,2.15,0,.87-.29,1.59-.86,2.15Z"/>
      <path class="cls-1" d="M273.79,224.66c-.19,0-.36.07-.5.21-.14.14-.21.31-.21.5s.07.36.21.51c.14.14.31.21.5.21.2,0,.37-.08.5-.21.14-.14.21-.3.21-.5s-.07-.36-.21-.5c-.14-.14-.31-.21-.5-.21Z"/>
      <path class="cls-1" d="M282.78,219.49c-1.07,0-1.98.35-2.74,1.06-.35.33-.63.71-.84,1.16-.21.45-.33.87-.35,1.26-.38,0-.78.09-1.18.25s-.75.4-1.04.74-.51.74-.64,1.2c-.14.47-.21,1.07-.21,1.8v1.91h.94v-2.28c0-.81.18-1.45.55-1.93.18-.23.41-.41.7-.54.29-.13.58-.2.89-.21.03.39.14.8.35,1.25s.48.83.83,1.16c.73.7,1.62,1.05,2.68,1.05s2.04-.38,2.8-1.13,1.13-1.69,1.13-2.81-.38-2.06-1.13-2.81c-.75-.75-1.66-1.13-2.73-1.13ZM284.84,225.58c-.57.56-1.28.84-2.15.84s-1.51-.29-2.07-.87c-.56-.58-.84-1.28-.84-2.12s.27-1.54.82-2.13c.55-.58,1.25-.88,2.1-.88s1.57.28,2.14.84.85,1.28.85,2.15c0,.87-.29,1.59-.86,2.15Z"/>
      <path class="cls-1" d="M288.65,224.66c-.19,0-.36.07-.5.21-.14.14-.21.31-.21.5s.07.36.21.51c.14.14.31.21.5.21.2,0,.37-.08.5-.21.14-.14.21-.3.21-.5s-.07-.36-.21-.5c-.14-.14-.31-.21-.5-.21Z"/>
      <path class="cls-1" d="M293.74,217.39c.19,0,.36-.07.5-.21s.21-.31.21-.5-.07-.36-.21-.51c-.14-.14-.31-.21-.5-.21s-.36.07-.5.21c-.14.14-.21.31-.21.51s.07.36.21.5.31.21.5.21Z"/>
      <path class="cls-1" d="M296,219.49c-.28-.3-.58-.52-.9-.67-.32-.15-.71-.23-1.16-.23h-1.05v.94h1.14c.23,0,.46.06.69.16.64.29.96.91.96,1.84v3.48h-5.14v.94h6.08v-4.59c0-.78-.21-1.4-.62-1.88Z"/>
    </g>
    <g>
      <path class="cls-1" d="M305.78,218.55c.19,0,.36-.07.5-.21s.21-.31.21-.5-.07-.36-.21-.5-.31-.21-.5-.21-.36.07-.5.21-.21.31-.21.5.07.36.21.5.31.21.5.21Z"/>
      <path class="cls-1" d="M310.48,225.02h-4.49c-.8,0-1.45-.18-1.94-.55-.24-.18-.43-.41-.56-.67-.12-.27-.18-.62-.18-1.07v-2.82h-.94v2.95c0,.4.08.81.25,1.24.16.43.42.76.76,1.02.19.15.39.27.58.38.19.11.46.21.81.31.34.1.88.15,1.59.15h5.06v-7.37h-.94v6.43Z"/>
      <path class="cls-1" d="M308.14,218.55c.19,0,.36-.07.5-.21s.21-.31.21-.5-.07-.36-.21-.5-.31-.21-.5-.21-.36.07-.5.21-.21.31-.21.5.07.36.21.5.31.21.5.21Z"/>
      <path class="cls-1" d="M320.03,216.64v6.22c0,.4-.08.82-.24,1.24-.32.84-1.03,1.4-2.11,1.66-.51.14-1.06.2-1.63.2h-3.3l-.11-.95h3.78c.81,0,1.46-.19,1.95-.55.24-.18.42-.4.54-.66.13-.27.2-.62.2-1.08v-6.09h.93Z"/>
      <rect class="cls-1" x="315.11" y="216.56" width=".94" height="8.08"/>
      <path class="cls-1" d="M326.73,218.59c-1.38,0-2.49.34-3.31,1.02-.82.68-1.23,1.57-1.23,2.67,0,1.26.47,2.22,1.42,2.86.81.55,1.85.82,3.12.82h.62v.46c0,.47-.15.85-.48,1.11-.32.27-.77.4-1.35.4-.33,0-.64-.06-.92-.16-.28-.11-.63-.28-1.04-.5l-.43.83c.45.27.84.47,1.18.59.34.12.73.19,1.16.19.85,0,1.53-.22,2.05-.66.52-.44.78-1.04.78-1.79v-7.83h-1.56ZM327.35,225.02h-.99c-.92,0-1.69-.24-2.31-.71s-.93-1.13-.93-1.97.33-1.52.99-2.03c.66-.51,1.41-.78,2.25-.78h.99v5.48Z"/>
      <path class="cls-1" d="M385.49,216.51s0,.09-.02.13c-.02.14-.09.26-.2.38-.15.14-.31.21-.51.21s-.37-.07-.51-.21c-.11-.11-.17-.24-.2-.38-.02-.04-.02-.08-.02-.13,0-.2.07-.36.21-.5.14-.15.31-.21.51-.21s.36.07.51.21c.14.14.21.3.21.5Z"/>
      <path class="cls-1" d="M387.87,216.51s0,.09-.02.13c-.02.14-.09.26-.2.38-.15.14-.31.21-.51.21s-.37-.07-.51-.21c-.11-.11-.18-.24-.2-.38-.02-.04-.02-.08-.02-.13,0-.2.07-.36.21-.5.14-.15.31-.21.51-.21s.36.07.51.21c.14.14.21.3.21.5Z"/>
      <path class="cls-1" d="M405.95,216.64v8.38h-2.9c.08-.12.18-.36.29-.72.11-.35.15-.73.15-1.14,0-1.12-.38-2.06-1.13-2.81-.75-.75-1.69-1.13-2.8-1.13s-2.04.39-2.77,1.17c-.73.78-1.1,1.71-1.1,2.77,0,.79.13,1.41.42,1.86h-8.09v-6.43h-1.81c-1.36,0-2.44.33-3.24,1-.79.66-1.19,1.6-1.19,2.8,0,.62.17,1.2.5,1.73.16.25.29.43.4.54.11.11.26.23.46.36h-51.54v-8.38h-.94v9.33h66.13c.31.32.69.59,1.18.8.47.22,1,.33,1.57.33s1.11-.11,1.6-.31c.49-.21.9-.48,1.22-.82h4.53v-9.33h-.94ZM387.08,225.02h-2.48c-.55-.27-1-.64-1.35-1.12-.35-.48-.53-1.05-.53-1.71,0-.38.09-.74.26-1.08.17-.34.4-.63.69-.86.6-.47,1.33-.72,2.17-.72h1.25v5.48ZM401.69,225.31c-.57.55-1.28.83-2.15.83s-1.51-.29-2.07-.86-.84-1.28-.84-2.11.27-1.53.82-2.12c.55-.6,1.25-.89,2.11-.89s1.57.29,2.14.85c.57.56.86,1.28.86,2.15s-.29,1.58-.86,2.15Z"/>
      <rect class="cls-1" x="409.92" y="216.64" width=".94" height="9.33"/>
      <path class="cls-1" d="M417.16,218.59c-1.38,0-2.48.34-3.3,1.02-.82.68-1.24,1.57-1.24,2.67,0,1.26.47,2.22,1.43,2.86.81.55,1.85.82,3.12.82h.62v.46c0,.47-.16.85-.48,1.11-.33.27-.77.4-1.35.4-.33,0-.64-.06-.92-.16-.29-.11-.64-.28-1.04-.5l-.44.83c.45.27.85.47,1.19.59.34.12.73.19,1.16.19.85,0,1.53-.22,2.05-.66.51-.44.78-1.04.78-1.79v-7.83h-1.57ZM417.79,225.02h-1c-.91,0-1.69-.24-2.31-.71-.62-.47-.93-1.13-.93-1.97s.33-1.52,1-2.03c.66-.51,1.41-.78,2.24-.78h1v5.48Z"/>
    </g>
    <g>
      <path class="cls-1" d="M429.71,217.94v.65h-.62c-1.34,0-2.41.35-3.25,1.04-.82.69-1.24,1.57-1.24,2.64,0,1.22.47,2.16,1.39,2.82.8.58,1.84.86,3.1.86h1.56v-8.03h-.94ZM429.71,225.02h-1c-.91,0-1.66-.24-2.27-.73-.6-.5-.91-1.16-.91-1.99s.33-1.48.97-1.99c.65-.51,1.38-.77,2.2-.77h1v5.48Z"/>
      <path class="cls-1" d="M430.84,215.99c0,.2-.07.37-.21.51-.06.06-.12.11-.2.14-.1.05-.2.07-.31.07s-.21-.02-.3-.07c-.07-.03-.14-.08-.2-.14-.14-.14-.2-.31-.2-.51s.07-.37.2-.51c.15-.14.31-.21.51-.21s.37.07.51.21c.14.14.21.31.21.51Z"/>
      <path class="cls-1" d="M428.46,215.99c0,.2-.07.37-.21.51-.06.06-.12.11-.2.14-.1.05-.2.07-.3.07-.11,0-.21-.02-.31-.07-.07-.03-.14-.08-.2-.14-.15-.14-.21-.31-.21-.51s.07-.37.21-.51c.14-.14.31-.21.51-.21s.36.07.5.21.21.31.21.51Z"/>
      <path class="cls-1" d="M433.74,226.43c0,.47-.05.82-.15,1.05-.13.31-.37.47-.71.47-.18,0-.39-.05-.65-.16l-.34.88c.34.15.68.23.99.23s.6-.07.85-.2c.25-.13.44-.31.58-.55.23-.4.35-.97.36-1.71v-7.84h-.94v7.84Z"/>
      <path class="cls-1" d="M471.07,227.27c-.19,0-.36.07-.5.21-.14.14-.21.31-.21.5s.07.36.21.51c.14.14.31.21.5.21s.36-.07.5-.21c.14-.14.21-.31.21-.51s-.07-.36-.21-.5c-.14-.14-.31-.21-.5-.21Z"/>
      <path class="cls-1" d="M483.9,216.51s0,.09-.02.13c-.02.14-.09.26-.2.38-.15.14-.31.21-.51.21s-.37-.07-.51-.21c-.11-.11-.17-.24-.2-.38-.02-.04-.02-.08-.02-.13,0-.2.07-.36.21-.5.14-.15.31-.21.51-.21s.36.07.51.21c.14.14.21.3.21.5Z"/>
      <path class="cls-1" d="M486.25,216.51s0,.09-.02.13c-.02.14-.08.26-.2.38-.14.14-.3.21-.5.21s-.36-.07-.51-.21c-.11-.11-.17-.24-.2-.38-.02-.04-.02-.08-.02-.13,0-.2.07-.36.21-.5.15-.15.31-.21.51-.21s.36.07.5.21c.15.14.21.3.21.5Z"/>
      <path class="cls-1" d="M494.37,216.64v9.33h-57.32v-9.33h.94v8.38h35.38c.18-.64.28-1.64.28-2.98,0-.38-.06-.73-.17-1.04-.11-.32-.33-.61-.65-.89-.48-.38-1.09-.57-1.84-.57s-1.49.28-2.22.82l-.37-.9c.54-.33,1-.56,1.4-.69.39-.12.83-.19,1.31-.19.92,0,1.68.26,2.3.78.78.65,1.18,1.61,1.18,2.86,0,1.08-.09,2-.28,2.78h9.69v-6.43h.94v6.43h4.04v-8.38h.94v8.38h3.52v-8.38h.94Z"/>
    </g>
    <rect class="cls-1" x="315.11" y="216.56" width=".94" height=".08"/>
    <path class="cls-1" d="M385.28,216.01c.14.14.21.3.21.5,0,.05,0,.09-.02.13h-1.4s-.02-.08-.02-.13c0-.2.07-.36.21-.5.14-.15.31-.21.51-.21s.36.07.51.21Z"/>
    <path class="cls-1" d="M387.65,216.01c.14.14.21.3.21.5,0,.05,0,.09-.02.13h-1.4s-.02-.08-.02-.13c0-.2.07-.36.21-.5.14-.15.31-.21.51-.21s.36.07.51.21Z"/>
    <path class="cls-1" d="M428.25,215.49c.14.14.21.31.21.51s-.07.37-.21.51c-.06.06-.12.11-.2.14h-.61c-.07-.03-.14-.08-.2-.14-.15-.14-.21-.31-.21-.51s.07-.37.21-.51c.14-.14.31-.21.51-.21s.36.07.5.21Z"/>
    <path class="cls-1" d="M430.63,215.49c.14.14.21.31.21.51s-.07.37-.21.51c-.06.06-.12.11-.2.14h-.61c-.07-.03-.14-.08-.2-.14-.14-.14-.2-.31-.2-.51s.07-.37.2-.51c.15-.14.31-.21.51-.21s.37.07.51.21Z"/>
    <path class="cls-1" d="M483.68,216.01c.14.14.21.3.21.5,0,.05,0,.09-.02.13h-1.4s-.02-.08-.02-.13c0-.2.07-.36.21-.5.14-.15.31-.21.51-.21s.36.07.51.21Z"/>
    <path class="cls-1" d="M486.25,216.51s0,.09-.02.13h-1.4s-.02-.08-.02-.13c0-.2.07-.36.21-.5.15-.15.31-.21.51-.21s.36.07.5.21c.15.14.21.3.21.5Z"/>
  </g>
</svg>