<?xml version="1.0" encoding="utf-8"?>
<!-- Generator: Adobe Illustrator 16.0.2, SVG Export Plug-In . SVG Version: 6.00 Build 0)  -->
<!DOCTYPE svg PUBLIC "-//W3C//DTD SVG 1.1//EN" "http://www.w3.org/Graphics/SVG/1.1/DTD/svg11.dtd">
<svg version="1.1" id="Layer_1" xmlns="http://www.w3.org/2000/svg" xmlns:xlink="http://www.w3.org/1999/xlink" x="0px" y="0px"
	 width="203.5px" height="206.4px" viewBox="0 0 203.5 206.4" enable-background="new 0 0 203.5 206.4" xml:space="preserve">
<g>
	<g>
		<path fill-rule="evenodd" clip-rule="evenodd" fill="#FEFEFE" d="M202.32,103.56c0,34.001-0.004,68.001,0.022,102.001
			c0.001,0.899-0.202,1.103-1.103,1.103c-66.64-0.024-133.28-0.024-199.92,0c-0.9,0-1.103-0.202-1.103-1.103
			c0.024-68.08,0.024-136.16,0-204.24c0-0.899,0.202-1.103,1.102-1.103c66.64,0.025,133.28,0.025,199.92,0
			c0.899,0,1.104,0.201,1.103,1.102C202.316,35.4,202.32,69.48,202.32,103.56z"/>
		<path fill-rule="evenodd" clip-rule="evenodd" fill="#0083CC" d="M101.226,6.454c1.275,1.548,2.532,3.038,3.75,4.559
			c10.258,12.815,19.772,26.135,27.414,40.708c3.644,6.947,6.925,14.081,8.33,21.854c2.249,12.444,0.604,24.175-7.51,34.348
			c-6.079,7.619-14.261,11.772-23.74,13.514c-5.882,1.081-11.772,0.917-17.671-0.007c-0.037-0.517,0.292-0.844,0.491-1.209
			c7.716-14.124,15.44-28.244,23.164-42.364c0.152-0.28,0.297-0.566,0.463-0.839c0.518-0.856,0.659-1.706,0.002-2.563
			c-0.622-0.811-1.459-0.903-2.376-0.72c-2.075,0.414-4.149,0.833-6.224,1.252c-1.644,0.331-3.288,0.662-4.931,0.997
			c-2.152,0.439-3.301-0.518-3.051-2.681c0.734-6.351,1.523-12.695,2.291-19.042c0.015-0.119,0.046-0.235,0.066-0.354
			c0.122-0.71-0.039-1.314-0.791-1.531c-0.78-0.226-1.176,0.271-1.438,0.926c-1.585,3.965-3.171,7.93-4.761,11.894
			c-2.985,7.445-5.977,14.889-8.955,22.337c-0.206,0.514-0.435,1.063-0.449,1.601c-0.034,1.298,1.187,2.179,2.592,1.906
			c3.135-0.609,6.267-1.238,9.396-1.879c1.018-0.209,1.999-0.321,2.768,0.57c0.805,0.934,0.534,1.898,0.108,2.912
			c-3.784,9.017-7.56,18.037-11.297,27.073c-0.342,0.827-0.66,1.027-1.551,0.779c-9.456-2.637-17.25-7.506-22.104-16.343
			c-3.05-5.552-4.204-11.588-4.483-17.847c-0.453-10.153,2.226-19.6,6.388-28.727c5.7-12.498,13.161-23.922,21.263-34.956
			C92.429,17.108,96.678,11.754,101.226,6.454z"/>
		<path fill-rule="evenodd" clip-rule="evenodd" fill="#0084CC" d="M80.815,172.518c1.405-5.96,2.794-11.823,4.167-17.691
			c0.707-3.02,3.241-4.507,6.201-3.622c0.658,0.196,0.376,0.724,0.377,1.096c0.021,5.12,0.014,10.239,0.014,15.359
			c0,3.64-0.029,7.28,0.02,10.919c0.012,0.91-0.185,1.245-1.169,1.207c-2.063-0.079-3.26-1.198-3.264-3.292
			c-0.011-4.837-0.004-9.675-0.211-14.549c-0.419,1.938-0.84,3.874-1.255,5.813c-0.794,3.708-1.611,7.411-2.354,11.129
			c-0.143,0.714-0.407,0.922-1.091,0.888c-0.997-0.051-2.002-0.058-2.998,0.002c-0.702,0.042-0.94-0.203-1.091-0.891
			c-1.143-5.224-2.337-10.438-3.517-15.653c-0.085-0.376-0.185-0.748-0.469-1.104c-0.018,0.361-0.051,0.723-0.051,1.083
			c-0.004,4.4,0.007,8.8-0.006,13.199c-0.007,2.335-1.464,3.591-3.792,3.364c-0.46-0.045-0.656-0.184-0.622-0.641
			c0.015-0.198,0-0.399,0-0.6c0-8.72,0.014-17.439-0.02-26.158c-0.004-0.925,0.211-1.329,1.179-1.186
			c0.431,0.063,0.878,0.008,1.318,0.012c2.068,0.015,3.384,1.021,3.89,3.035c1.448,5.768,2.881,11.538,4.316,17.309
			C80.466,171.853,80.489,172.176,80.815,172.518z"/>
		<path fill-rule="evenodd" clip-rule="evenodd" fill="#0084CC" d="M154.907,165.449c0-2.438-0.052-4.879,0.013-7.316
			c0.095-3.629,2.651-6.462,6.11-6.883c3.365-0.41,6.596,1.718,7.529,4.983c0.142,0.494,0.241,1.02,0.246,1.531
			c0.045,5.354,0.161,10.71-0.058,16.063c-0.05,1.231-0.571,2.311-1.323,3.279c-0.7,0.899-0.631,1.392,0.48,1.614
			c1.229,0.246,0.979,0.935,0.726,1.649c-0.689,1.949-3.485,2.389-4.918,0.646c-0.777-0.947-1.577-1.187-2.702-1.253
			c-3.394-0.201-6.042-3.33-6.098-7.117C154.877,170.247,154.906,167.848,154.907,165.449z"/>
		<path fill-rule="evenodd" clip-rule="evenodd" fill="#0084CC" d="M151.066,179.721c-0.9,0-1.767,0.146-2.561-0.032
			c-1.44-0.322-2.117-1.387-2.386-2.824c-0.421-2.258-0.466-2.25-2.743-2.249c-1.199,0-2.399,0.018-3.599-0.008
			c-0.53-0.011-0.798,0.156-0.876,0.714c-0.095,0.67-0.269,1.33-0.434,1.987c-0.493,1.96-2.65,3.112-4.529,2.443
			c-0.572-0.204-0.241-0.615-0.183-0.886c0.86-3.937,1.749-7.867,2.632-11.799c1.1-4.906,2.226-9.806,3.276-14.723
			c0.196-0.918,0.537-1.326,1.479-1.151c0.231,0.044,0.479,0.007,0.719,0.007c2.896,0,2.896,0,3.521,2.792
			c1.841,8.216,3.682,16.431,5.518,24.646C150.977,178.978,151.008,179.327,151.066,179.721z"/>
		<path fill-rule="evenodd" clip-rule="evenodd" fill="#0084CC" d="M112.637,179.748c-0.788,0-1.589,0.068-2.373-0.016
			c-1.285-0.14-2.168-1.184-2.52-2.826c-0.49-2.291-0.49-2.291-2.841-2.291c-1.12,0-2.242,0.043-3.358-0.016
			c-0.712-0.038-1.016,0.228-1.09,0.909c-0.047,0.434-0.202,0.854-0.282,1.285c-0.562,3.012-2.377,3.077-4.466,2.963
			c-0.859-0.047-0.4-0.643-0.331-0.962c0.688-3.198,1.412-6.39,2.128-9.582c1.259-5.605,2.544-11.206,3.753-16.822
			c0.209-0.971,0.575-1.318,1.562-1.211c0.909,0.099,1.838,0.048,2.756,0.01c0.518-0.021,0.81,0.105,0.931,0.654
			c2.036,9.194,4.086,18.385,6.13,27.577C112.651,179.497,112.637,179.58,112.637,179.748z"/>
		<path fill-rule="evenodd" clip-rule="evenodd" fill="#0084CC" d="M44.776,179.754c-2.151,0.005-3.056-0.746-3.525-2.925
			c-0.477-2.214-0.477-2.214-2.787-2.214c-1.12,0-2.241,0.035-3.358-0.014c-0.671-0.029-1.064,0.14-1.117,0.869
			c-0.026,0.354-0.137,0.704-0.216,1.054c-0.595,2.655-1.424,3.268-4.145,3.257c-0.797-0.003-0.939-0.217-0.771-0.952
			c1.148-5.018,2.268-10.042,3.393-15.063c0.864-3.855,1.739-7.707,2.573-11.568c0.157-0.729,0.396-1.089,1.233-1.018
			c1.229,0.104,2.769-0.372,3.625,0.21c0.871,0.592,0.714,2.259,0.986,3.458c1.799,7.938,3.555,15.887,5.387,23.817
			C46.385,180.096,45.498,179.739,44.776,179.754z"/>
		<path fill-rule="evenodd" clip-rule="evenodd" fill="#0084CC" d="M130.247,158.985c-0.031,2.024-0.069,2.058-2.107,1.803
			c-1.387-0.175-2.182-1.123-2.38-2.841c-0.145-1.252-0.985-2.16-2.186-2.361c-1.059-0.177-2.32,0.488-2.679,1.584
			c-0.407,1.244-0.398,2.513,0.371,3.671c0.726,1.093,1.765,1.835,2.845,2.526c0.772,0.494,1.592,0.923,2.328,1.465
			c3.459,2.545,4.365,6.04,3.49,9.858c-0.779,3.401-4.073,5.453-7.685,5.053c-3.221-0.357-5.747-3.227-5.972-6.788
			c-0.013-0.199-0.061-0.419,0.002-0.596c0.247-0.705-0.623-1.818,0.557-2.125c1.586-0.413,3.02,0.278,3.589,1.485
			c0.208,0.442,0.232,0.917,0.283,1.397c0.142,1.324,1.345,2.357,2.623,2.306c1.303-0.054,2.311-1.146,2.444-2.499
			c0.165-1.663-0.487-2.946-1.649-4.049c-1.052-0.998-2.272-1.754-3.498-2.509c-3.39-2.086-4.75-5.146-4.275-9.054
			c0.444-3.66,3.337-6.148,7.068-6.112c3.499,0.034,6.327,2.658,6.712,6.235C130.184,157.95,130.208,158.469,130.247,158.985z"/>
		<path fill-rule="evenodd" clip-rule="evenodd" fill="#0184CC" d="M49.785,164.687c0-4.114,0.02-8.229-0.017-12.344
			c-0.007-0.826,0.108-1.204,1.083-1.169c2.118,0.076,3.344,1.208,3.347,3.353c0.011,6.592,0.027,13.184-0.021,19.774
			c-0.007,0.978,0.293,1.26,1.203,1.15c0.512-0.062,1.037-0.013,1.557-0.011c2.166,0.007,3.288,1.175,3.321,3.331
			c0.012,0.761-0.163,1.031-0.975,1.009c-2.156-0.059-4.314-0.02-6.471-0.02c-2.361-0.001-3.025-0.677-3.027-3.089
			C49.784,172.677,49.785,168.682,49.785,164.687z"/>
		<path fill-rule="evenodd" clip-rule="evenodd" fill="#444445" d="M131.804,139.271c0,0.72,0.003,1.44-0.001,2.16
			c-0.009,1.857-1.253,2.823-3.001,2.218c-0.573-0.199-1.017-0.313-1.534,0.026c-0.121,0.08-0.339,0.126-0.462,0.072
			c-1.574-0.694-3.182,0.257-4.853-0.142c-0.831-0.198-2.118,0.062-3.161,0.04c-1.48-0.03-2.955,0.274-4.421,0.069
			c-0.926-0.13-1.526-0.757-1.556-1.712c-0.051-1.678-0.012-3.358-0.017-5.038c0-0.291,0.058-0.551,0.252-0.777
			c0.188-0.22,0.4-0.44,0.702-0.375c0.4,0.085,0.237,0.451,0.239,0.694c0.016,1.56,0.027,3.12,0,4.68
			c-0.014,0.795,0.015,1.399,1.101,1.399c0.988-0.001,1.415-0.321,1.319-1.324c-0.029-0.305,0.024-0.645,0.14-0.928
			c0.136-0.336,0.422-0.671,0.808-0.604c0.458,0.078,0.202,0.521,0.229,0.798c0.044,0.436,0.013,0.878,0.014,1.318
			c0.001,0.354,0.118,0.656,0.509,0.685c0.434,0.032,0.661-0.24,0.68-0.658c0.021-0.479-0.009-0.96,0.016-1.438
			c0.03-0.59,0.374-1.1,0.924-1.064c0.555,0.036,0.213,0.646,0.256,0.993c0.058,0.473,0.019,0.958,0.014,1.438
			c-0.003,0.407,0.129,0.747,0.584,0.734c0.43-0.012,0.603-0.341,0.609-0.746c0.01-0.6-0.021-1.201,0.021-1.799
			c0.036-0.522,0.336-1.004,0.858-0.992c0.651,0.014,0.253,0.613,0.312,0.94c0.068,0.388,0.015,0.797,0.016,1.197
			c0.006,1.355,0.293,1.589,1.643,1.429c0.528-0.063,0.807-0.283,0.799-0.829c-0.006-0.52,0-1.04,0.001-1.56
			c0.003-1.361,0.136-1.471,1.415-1.109c1.304,0.368,2.214,1.152,2.355,2.553c0.083,0.825,0.518,0.973,1.207,0.943
			c0.738-0.032,0.791-0.509,0.786-1.076c-0.011-1.279-0.016-2.56,0.004-3.839c0.006-0.395,0.052-0.8,0.16-1.178
			c0.101-0.354,0.365-0.696,0.767-0.633c0.457,0.071,0.247,0.517,0.256,0.795C131.821,137.512,131.804,138.392,131.804,139.271z"/>
		<path fill-rule="evenodd" clip-rule="evenodd" fill="#444445" d="M101.563,139.183c0,0.719-0.062,1.445,0.013,2.156
			c0.193,1.877-1.072,2.777-3.046,2.334c-0.646-0.146-1.165-0.294-1.769,0.024c-0.194,0.102-0.472,0.074-0.708,0.059
			c-3.417-0.223-6.832,0.135-10.249,0.011c-1.61-0.059-2.274-0.67-2.283-2.24c-0.009-1.438-0.001-2.877-0.002-4.316
			c0-0.359-0.022-0.719,0.246-1.019c0.192-0.215,0.401-0.439,0.701-0.381c0.404,0.08,0.244,0.447,0.246,0.69
			c0.015,1.599,0.045,3.198-0.007,4.795c-0.03,0.911,0.242,1.324,1.217,1.279c1.315-0.062,2.637-0.035,3.955-0.007
			c0.589,0.013,0.651-0.184,0.492-0.705c-0.536-1.758-1.967-2.171-3.253-0.899c-0.306,0.302-0.688,0.577-1.043,0.324
			c-0.343-0.243-0.046-0.664,0.089-0.97c0.705-1.588,2.841-1.881,4.263-0.596c0.614,0.556,1.05,1.27,1.153,2.054
			c0.121,0.92,0.683,0.799,1.275,0.781c0.726-0.021,0.781-0.506,0.799-1.075c0.021-0.669-0.176-1.369,0.2-1.997
			c0.165-0.276,0.395-0.561,0.751-0.494c0.4,0.074,0.22,0.451,0.232,0.695c0.027,0.559,0.036,1.12,0.002,1.678
			c-0.051,0.858,0.279,1.223,1.181,1.216c0.944-0.007,1.005-0.536,0.992-1.25c-0.023-1.238-0.016-2.478,0-3.716
			c0.004-0.355,0.042-0.72,0.134-1.062c0.108-0.4,0.361-0.793,0.823-0.703c0.428,0.082,0.222,0.534,0.226,0.813
			c0.022,1.559,0.024,3.117,0.005,4.676c-0.01,0.824,0.261,1.249,1.182,1.241c0.945-0.008,1.003-0.539,0.989-1.251
			c-0.023-1.238-0.016-2.478,0-3.716c0.004-0.355,0.042-0.72,0.135-1.062c0.108-0.401,0.362-0.793,0.824-0.702
			c0.428,0.084,0.215,0.534,0.225,0.815C101.583,137.503,101.563,138.344,101.563,139.183z"/>
		<path fill-rule="evenodd" clip-rule="evenodd" fill="#444445" d="M140.706,142.79c0.404,0.646,0.488,1.026-0.537,0.989
			c-1.8-0.064-2.778-1.397-2.162-3.086c0.257-0.704,0.73-1.237,1.368-1.613c0.701-0.413,1.544-0.832,2.261-0.522
			c0.699,0.303,0.18,1.212,0.294,1.841c0.057,0.31,0.035,0.641,0.006,0.957c-0.091,0.967,0.378,1.229,1.285,1.229
			c0.919-0.002,1.357-0.29,1.265-1.248c-0.075-0.778,0.112-1.422,1.195-1.701c0,0.64-0.013,1.209,0.004,1.777
			c0.013,0.453-0.154,1.103,0.551,1.108c0.758,0.007,0.619-0.665,0.647-1.17c0.031-0.547-0.145-1.127,0.266-1.615
			c0.188-0.225,0.43-0.433,0.703-0.385c0.403,0.07,0.208,0.452,0.22,0.694c0.029,0.598,0.01,1.199,0.011,1.799
			c0.001,0.353,0.114,0.655,0.505,0.688c0.444,0.037,0.658-0.257,0.677-0.662c0.028-0.639-0.021-1.282,0.035-1.918
			c0.046-0.516,0.37-1.004,0.891-0.956c0.585,0.054,0.207,0.642,0.279,0.983c0.057,0.268,0.012,0.558,0.012,0.837
			c0,1.772,0.052,1.786,1.8,1.76c0.859-0.013,1.135-0.389,1.087-1.179c-0.022-0.392-0.077-0.803,0.185-1.158
			c0.194-0.265,0.423-0.568,0.755-0.514c0.472,0.078,0.208,0.516,0.243,0.789c0.045,0.354,0.011,0.719,0.011,1.078
			c0,0.449-0.023,0.975,0.612,0.936c0.581-0.036,0.59-0.537,0.591-0.997c0.002-0.478-0.035-0.972,0.074-1.428
			c0.104-0.437,0.442-0.746,1.124-0.768c0,0.82,0.003,1.635-0.002,2.448c-0.003,0.402,0.106,0.75,0.565,0.752
			c0.437,0.002,0.615-0.321,0.626-0.726c0.018-0.64-0.024-1.283,0.039-1.917c0.045-0.461,0.348-0.902,0.823-0.895
			c0.667,0.01,0.304,0.603,0.328,0.919c0.056,0.715,0.038,1.439,0.002,2.157c-0.043,0.843-0.486,1.67-1.301,1.6
			c-1.281-0.109-2.587,0.358-3.824-0.129c-0.689-0.271-1.174,0.346-1.834,0.234c-1.606-0.271-3.289-0.302-4.854-0.16
			c-1.19,0.108-2.351-0.319-3.566,0.079c-1.102,0.361-2.285,0.079-3.151-0.878c-0.289-0.424-0.201-0.911-0.241-1.379
			c-0.027-0.331,0.152-0.803-0.296-0.925c-0.401-0.108-0.624,0.272-0.786,0.591c-0.207,0.406-0.133,0.767,0.271,1.026
			C140.083,142.342,140.536,142.363,140.706,142.79z"/>
		<path fill-rule="evenodd" clip-rule="evenodd" fill="#444445" d="M86.527,193.265c-0.824,1.376-1.959,2.101-3.523,1.79
			c-1.385-0.274-2.249-1.234-2.546-2.576c-0.338-1.527,0.093-2.882,1.434-3.781c0.579-0.39,0.547-0.629,0.214-1.185
			c-0.917-1.529-0.571-3.271,0.725-4.161c1.085-0.745,2.468-0.541,3.33,0.492c1.028,1.235,0.905,3.133-0.387,4.326
			c-0.486,0.449-0.591,0.689-0.121,1.201c0.372,0.404,0.582,0.58,0.982,0.052c0.207-0.273,0.535-0.494,0.855-0.632
			c0.403-0.173,1.055-0.535,1.229-0.033c0.152,0.442,0.453,1.167-0.385,1.639c-1.173,0.66-1.145,1.16-0.127,2.051
			c0.198,0.174,0.595,0.173,0.579,0.53c-0.021,0.462,0.248,1.063-0.147,1.351c-0.353,0.257-0.834-0.089-1.198-0.336
			C87.145,193.793,86.88,193.549,86.527,193.265z"/>
		<path fill-rule="evenodd" clip-rule="evenodd" fill="#444445" d="M169.439,190.974c-0.002,1.559,0.034,3.119-0.012,4.677
			c-0.046,1.573-1.164,2.752-2.655,2.901c-1.438,0.144-2.683-0.715-3.138-2.059c-0.279-0.824,0.033-0.974,0.756-0.887
			c0.56,0.067,0.912,0.439,1.315,0.77c0.668,0.546,1.529,0.389,1.766-0.341c0.163-0.505,0.369-1.064-0.671-0.96
			c-1.892,0.189-3.23-1.059-3.307-2.958c-0.05-1.237-0.063-2.481,0.004-3.717c0.111-2.073,1.827-3.297,3.846-2.804
			c0.265,0.064,0.519,0.296,0.797,0.14c1.308-0.734,1.338,0.051,1.31,1.04C169.411,188.174,169.44,189.574,169.439,190.974z"/>
		<path fill-rule="evenodd" clip-rule="evenodd" fill="#444445" d="M74.399,190.992c-0.002,1.56,0.036,3.119-0.012,4.677
			c-0.049,1.565-1.184,2.745-2.673,2.886c-1.436,0.136-2.673-0.735-3.125-2.079c-0.293-0.872,0.107-0.94,0.78-0.865
			c0.56,0.063,0.915,0.439,1.31,0.781c0.658,0.567,1.25,0.412,1.717-0.268c0.188-0.272,0.196-0.628,0.076-0.926
			c-0.161-0.398-0.488-0.089-0.727-0.081c-1.891,0.065-3.218-1.113-3.292-3.02c-0.046-1.197-0.048-2.399,0-3.597
			c0.087-2.149,1.79-3.405,3.869-2.899c0.229,0.056,0.52,0.232,0.677,0.15c1.688-0.881,1.4,0.353,1.401,1.282
			C74.401,188.354,74.4,189.673,74.399,190.992z"/>
		<path fill-rule="evenodd" clip-rule="evenodd" fill="#444445" d="M63.884,139.257c0,0.72-0.08,1.45,0.016,2.156
			c0.208,1.526-0.876,2.781-3.003,2.24c-0.558-0.143-1.01-0.361-1.532,0.016c-0.115,0.084-0.313,0.104-0.463,0.083
			c-2.701-0.371-5.398,0.226-8.101,0.018c-1.369-0.104-2.06-0.73-2.077-2.088c-0.019-1.519-0.001-3.037-0.007-4.557
			c-0.001-0.368,0.024-0.716,0.306-0.997c0.204-0.203,0.419-0.414,0.723-0.291c0.286,0.116,0.167,0.413,0.168,0.63
			c0.01,1.679,0.021,3.357-0.001,5.036c-0.009,0.668,0.17,1.075,0.93,1.065c0.43-0.005,0.611-0.068,0.581-0.586
			c-0.059-1.028,0.387-1.857,1.269-2.417c0.688-0.435,1.517-0.893,2.232-0.53c0.561,0.283,0.148,1.166,0.226,1.776
			c0.035,0.275-0.005,0.559,0.008,0.838c0.021,0.418-0.25,0.984,0.605,0.928c0.671-0.044,1.207-0.096,1.162-0.96
			c-0.025-0.479-0.004-0.959-0.004-1.438c0.003-1.385,0.156-1.493,1.524-1.076c1.257,0.383,2.11,1.171,2.245,2.512
			c0.083,0.819,0.506,0.979,1.201,0.95c0.735-0.03,0.799-0.498,0.794-1.068c-0.012-1.279-0.015-2.559,0.003-3.837
			c0.006-0.395,0.053-0.799,0.156-1.178c0.098-0.359,0.364-0.696,0.76-0.647c0.467,0.059,0.259,0.509,0.268,0.785
			C63.901,137.498,63.884,138.378,63.884,139.257z"/>
		<path fill-rule="evenodd" clip-rule="evenodd" fill="#444445" d="M54.72,189.104c0,1.755,0,3.509,0,5.263
			c0,0.393,0.028,0.99-0.548,0.717c-0.815-0.387-1.519-0.019-2.274,0.029c-1.631,0.102-3.004-1.102-3.109-2.809
			c-0.083-1.351-0.082-2.714-0.008-4.064c0.103-1.869,1.497-3.063,3.384-2.851c0.717,0.08,0.704-0.207,0.679-0.687
			c-0.026-0.486-0.001-0.97,0.342-1.354c0.341-0.382,0.802-0.582,1.291-0.434c0.477,0.146,0.227,0.614,0.231,0.926
			C54.734,185.595,54.72,187.35,54.72,189.104z"/>
		<path fill-rule="evenodd" clip-rule="evenodd" fill="#444445" d="M135.84,191.042c0,1.076,0.01,2.153-0.006,3.229
			c-0.004,0.279,0.061,0.858-0.385,0.631c-0.86-0.44-1.523,0.136-2.274,0.21c-1.464,0.144-2.755-0.756-3.136-2.196
			c-0.436-1.646,0.192-3.022,1.685-3.619c0.402-0.161,0.845-0.221,1.26-0.356c0.372-0.121,0.948,0.07,0.979-0.617
			c0.021-0.504-0.039-0.984-0.516-1.251c-0.452-0.253-0.918-0.214-1.335,0.133c-0.4,0.333-0.816,0.638-1.349,0.729
			c-0.654,0.111-0.985-0.004-0.731-0.794c0.427-1.327,1.7-2.216,3.12-2.092c1.41,0.124,2.558,1.306,2.682,2.765
			c0.007,0.079,0.007,0.159,0.007,0.238C135.84,189.048,135.84,190.045,135.84,191.042z"/>
		<path fill-rule="evenodd" clip-rule="evenodd" fill="#444445" d="M47.04,191.048c0,1.077,0.008,2.153-0.006,3.229
			c-0.003,0.281,0.052,0.859-0.391,0.625c-0.863-0.457-1.523,0.144-2.274,0.212c-1.511,0.139-2.794-0.796-3.156-2.321
			c-0.379-1.595,0.258-2.919,1.715-3.499c0.403-0.16,0.845-0.221,1.26-0.354c0.374-0.119,0.947,0.065,0.973-0.622
			c0.02-0.505-0.043-0.985-0.521-1.249c-0.453-0.249-0.919-0.208-1.335,0.141c-0.399,0.334-0.817,0.635-1.35,0.726
			c-0.668,0.114-0.975-0.023-0.723-0.801c0.429-1.327,1.705-2.212,3.124-2.085c1.409,0.126,2.587,1.309,2.665,2.77
			c0.057,1.074,0.011,2.153,0.011,3.229C47.036,191.048,47.038,191.048,47.04,191.048z"/>
		<path fill-rule="evenodd" clip-rule="evenodd" fill="#444445" d="M95.088,188.995c-0.001-1.078-0.057-2.16,0.012-3.233
			c0.108-1.697,1.477-2.935,3.079-2.875c1.611,0.061,2.849,1.377,2.845,3.092c0,0.325,0.313,0.865-0.326,0.969
			c-0.588,0.096-1.177-0.022-1.388-0.653c-0.254-0.76-0.334-1.717-1.453-1.474c-1.224,0.266-0.873,1.348-0.888,2.178
			c-0.029,1.596,0.001,3.193-0.012,4.791c-0.006,0.702,0.135,1.311,0.941,1.424c0.781,0.109,1.187-0.306,1.27-1.077
			c0.04-0.368,0.2-0.676,0.523-0.9c0.365-0.253,0.785-0.273,1.147-0.15c0.381,0.129,0.19,0.555,0.194,0.845
			c0.021,1.734-1.15,3.079-2.747,3.187c-1.665,0.112-3.05-1.101-3.183-2.889C95.024,191.155,95.089,190.073,95.088,188.995z"/>
		<path fill-rule="evenodd" clip-rule="evenodd" fill="#454546" d="M60.523,190.205c0-1.396,0.019-2.794-0.009-4.189
			c-0.012-0.615,0.317-0.904,0.781-0.624c0.614,0.371,1.106,0.138,1.674,0.009c1.649-0.374,3.388,0.854,3.472,2.593
			c0.107,2.189,0.021,4.389,0.047,6.583c0.006,0.529-0.256,0.596-0.663,0.534c-0.934-0.142-1.228-0.766-1.225-1.623
			c0.006-1.596-0.012-3.192,0.007-4.788c0.009-0.811-0.174-1.497-1.129-1.476c-0.954,0.021-1.093,0.733-1.084,1.528
			c0.019,1.556-0.001,3.112,0.01,4.669c0.003,0.449-0.022,0.885-0.324,1.241c-0.339,0.399-0.802,0.567-1.292,0.421
			c-0.483-0.145-0.249-0.611-0.255-0.928C60.507,192.839,60.522,191.521,60.523,190.205z"/>
		<path fill-rule="evenodd" clip-rule="evenodd" fill="#454546" d="M155.563,190.234c0-1.396,0.022-2.794-0.008-4.189
			c-0.018-0.836,0.441-0.872,0.983-0.589c0.396,0.208,0.699,0.168,1.099,0.051c2.033-0.597,3.824,0.692,3.874,2.814
			c0.046,1.994-0.029,3.991,0.026,5.985c0.028,0.994-0.461,0.942-1.098,0.684c-0.644-0.262-0.8-0.831-0.798-1.473
			c0.005-1.637-0.01-3.272,0.006-4.908c0.007-0.779-0.226-1.388-1.099-1.388c-0.866-0.001-1.118,0.599-1.111,1.381
			c0.013,1.596-0.004,3.192,0.008,4.788c0.003,0.491-0.024,0.962-0.385,1.338c-0.331,0.345-0.76,0.479-1.204,0.366
			c-0.51-0.13-0.276-0.597-0.282-0.91C155.548,192.869,155.563,191.552,155.563,190.234z"/>
		<path fill-rule="evenodd" clip-rule="evenodd" fill="#454546" d="M116.641,191.32c0,0.957,0.023,1.916-0.014,2.872
			c-0.011,0.307,0.245,0.771-0.263,0.903c-0.445,0.115-0.878-0.032-1.205-0.369c-0.359-0.369-0.403-0.843-0.4-1.335
			c0.01-1.597-0.007-3.192,0.009-4.789c0.007-0.781-0.234-1.386-1.105-1.382c-0.866,0.005-1.112,0.607-1.105,1.389
			c0.014,1.596-0.003,3.192,0.009,4.788c0.003,0.491-0.027,0.961-0.39,1.336c-0.332,0.343-0.762,0.477-1.205,0.359
			c-0.504-0.134-0.274-0.601-0.277-0.914c-0.019-2.633,0.013-5.268-0.023-7.9c-0.013-0.906,0.287-1.243,1.098-0.764
			c0.394,0.232,0.661,0.073,0.992-0.021c2.036-0.573,3.803,0.709,3.875,2.833C116.668,189.324,116.641,190.322,116.641,191.32z"/>
		<path fill-rule="evenodd" clip-rule="evenodd" fill="#444445" d="M108.956,190.266c0,0.68,0.034,1.362-0.007,2.04
			c-0.093,1.521-1.297,2.726-2.768,2.813c-1.499,0.089-2.889-0.916-3.082-2.44c-0.211-1.66-0.243-3.356,0.029-5.016
			c0.242-1.475,1.572-2.427,3.031-2.338c1.51,0.092,2.692,1.25,2.789,2.782C108.994,188.823,108.956,189.546,108.956,190.266z"/>
		<path fill-rule="evenodd" clip-rule="evenodd" fill="#444445" d="M137.823,190.2c0.03-0.913-0.132-1.838,0.147-2.74
			c0.397-1.283,1.55-2.153,2.862-2.136c1.331,0.018,2.57,1.005,2.84,2.318c0.067,0.327,0.38,0.906-0.231,0.952
			c-0.507,0.038-1.285,0.442-1.543-0.402c-0.228-0.749-0.652-1.115-1.396-0.939c-0.787,0.186-0.838,0.848-0.826,1.526
			c0.019,1.039,0.013,2.079,0.003,3.118c-0.007,0.673,0.199,1.203,0.931,1.316c0.643,0.1,1.09-0.186,1.242-0.84
			c0.228-0.982,1.046-0.657,1.563-0.565c0.706,0.125,0.313,0.775,0.211,1.16c-0.343,1.289-1.542,2.16-2.843,2.151
			c-1.336-0.01-2.436-0.856-2.823-2.179c-0.057-0.191-0.127-0.388-0.131-0.583C137.813,191.64,137.823,190.92,137.823,190.2z"/>
		<path fill-rule="evenodd" clip-rule="evenodd" fill="#444445" d="M160.885,145.644c-0.035-1.075,1.067-1.123,1.495-1.764
			c-1.643-0.497-2.241-1.313-1.926-2.599c0.335-1.363,2.137-2.607,3.354-2.366c0.438,0.087,0.342,0.368,0.347,0.62
			c0.015,0.679,0.029,1.357,0,2.034c-0.036,0.824,0.419,0.995,1.127,1.003c0.74,0.007,1.138-0.229,1.086-1.031
			c-0.032-0.517,0.056-1.045-0.018-1.554c-0.161-1.121,0.425-1.186,1.259-0.971c1.146,0.295,2.04,0.887,2.427,2.071
			c0.257,0.785,0.153,1.518-0.44,2.104c-0.589,0.58-1.32,0.791-2.08,0.382c-0.856-0.461-1.545,0.426-2.378,0.203
			c-0.712-0.19-1.257-0.026-1.719,0.735C162.896,145.375,161.998,145.863,160.885,145.644z"/>
		<path fill-rule="evenodd" clip-rule="evenodd" fill="#454546" d="M30.239,189.878c0-1.399-0.041-2.801,0.017-4.198
			c0.03-0.728-0.165-1.053-0.919-0.923c-0.807,0.139-0.99-0.235-1.005-1.004c-0.016-0.817,0.333-0.906,0.997-0.885
			c1.238,0.04,2.48,0.039,3.719,0c0.631-0.02,0.969,0.104,0.906,0.835c-0.049,0.568,0.073,1.197-0.822,1.051
			c-0.88-0.145-1.049,0.259-1.033,1.066c0.051,2.479,0.015,4.959,0.021,7.438c0.001,0.57-0.005,1.131-0.479,1.542
			c-0.32,0.278-0.718,0.401-1.119,0.298c-0.513-0.134-0.263-0.597-0.27-0.901C30.223,192.758,30.239,191.318,30.239,189.878z"/>
		<path fill-rule="evenodd" clip-rule="evenodd" fill="#444445" d="M146.837,190.082c0-0.639-0.012-1.277,0.003-1.915
			c0.013-0.537,0.08-1.061-0.748-0.983c-0.409,0.037-0.394-0.338-0.359-0.604c0.053-0.407-0.233-1.133,0.237-1.164
			c1.12-0.075,0.787-0.803,0.886-1.414c0.063-0.383-0.399-1.057,0.439-1.107c0.681-0.041,1.145,0.326,1.313,0.985
			c0.163,0.639-0.249,1.552,1.029,1.578c0.327,0.007,0.115,0.86,0.159,1.323c0.038,0.408-0.252,0.445-0.55,0.417
			c-0.624-0.059-0.59,0.36-0.588,0.774c0.004,1.276,0.008,2.553-0.001,3.829c-0.004,0.551,0.142,1.015,0.6,1.362
			c0.153,0.117,0.303,0.278,0.379,0.452c0.195,0.445,0.355,1.013,0.055,1.361c-0.314,0.366-0.822,0.016-1.19-0.169
			c-0.998-0.5-1.593-1.316-1.647-2.453c-0.035-0.756-0.007-1.515-0.007-2.272C146.844,190.082,146.84,190.082,146.837,190.082z"/>
		<path fill-rule="evenodd" clip-rule="evenodd" fill="#444445" d="M119.716,190.107c0-0.758-0.003-1.516,0.001-2.273
			c0.002-0.338,0.001-0.678-0.479-0.627c-0.694,0.072-0.677-0.391-0.629-0.842c0.044-0.414-0.261-1.021,0.565-1.049
			c0.913-0.029,0.389-0.766,0.546-1.171c0.166-0.428-0.469-1.255,0.546-1.247c0.796,0.006,1.237,0.516,1.263,1.307
			c0.02,0.608-0.088,1.124,0.857,1.191c0.555,0.04,0.216,0.805,0.289,1.238c0.064,0.381-0.084,0.62-0.522,0.565
			c-0.594-0.073-0.622,0.303-0.617,0.745c0.013,1.276,0.011,2.554,0.002,3.83c-0.004,0.547,0.124,1.015,0.578,1.373
			c0.182,0.143,0.361,0.34,0.44,0.55c0.152,0.41,0.303,0.942,0.034,1.261c-0.333,0.396-0.823,0.036-1.186-0.141
			c-1.002-0.489-1.609-1.3-1.669-2.438c-0.039-0.756-0.007-1.516-0.007-2.273C119.725,190.107,119.721,190.107,119.716,190.107z"/>
		<path fill-rule="evenodd" clip-rule="evenodd" fill="#454546" d="M109.844,143.913c-1.658-0.563-2.221-1.276-1.988-2.489
			c0.272-1.418,1.824-2.586,3.249-2.51c0.47,0.025,0.502,0.247,0.498,0.601c-0.014,1.118,0.043,2.241-0.039,3.354
			c-0.101,1.367-1.156,2.516-2.429,2.796c-1.312,0.29-2.597-0.211-3.366-1.31c-0.737-1.056-0.741-2.558,0.006-3.592
			c0.174-0.241,0.327-0.662,0.693-0.482c0.268,0.131,0.372,0.515,0.312,0.854c-0.034,0.193-0.111,0.381-0.188,0.563
			c-0.414,0.979-0.207,1.847,0.635,2.445C108.103,144.768,109.016,144.699,109.844,143.913z"/>
		<path fill-rule="evenodd" clip-rule="evenodd" fill="#454546" d="M39.815,140.02c-0.604-0.694-1.147-1.328-1.702-1.951
			c-0.269-0.303-0.523-0.604-0.548-1.032c-0.016-0.286,0-0.608,0.231-0.769c0.359-0.248,0.467,0.183,0.624,0.354
			c0.854,0.933,1.684,1.888,2.596,2.921c0.377-0.855,0.161-1.614,0.214-2.346c0.029-0.397-0.013-0.798,0.311-1.114
			c0.18-0.177,0.384-0.328,0.626-0.29c0.321,0.05,0.279,0.35,0.264,0.574c-0.087,1.299,0.29,2.646-0.344,3.884
			c-0.194,0.379,0.047,0.588,0.137,0.874c0.456,1.441-0.326,2.566-1.835,2.632c-0.557,0.023-1.129-0.072-1.671,0.02
			c-1.271,0.214-1.265-0.454-1.045-1.358C37.93,141.357,38.471,140.715,39.815,140.02z"/>
		<path fill-rule="evenodd" clip-rule="evenodd" fill="#464647" d="M124.602,190.264c0.001-1.399,0.025-2.799-0.01-4.197
			c-0.018-0.685,0.334-0.967,0.851-0.659c0.584,0.349,1.036,0.112,1.562,0.006c0.342-0.069,0.921-0.354,0.913,0.295
			c-0.006,0.487,0.513,1.27-0.399,1.483c-0.846,0.197-1.052,0.718-1.042,1.484c0.02,1.599-0.003,3.197,0.011,4.797
			c0.004,0.544-0.08,1.033-0.539,1.387c-0.341,0.263-0.743,0.358-1.129,0.208c-0.396-0.153-0.201-0.56-0.207-0.848
			C124.589,192.901,124.602,191.582,124.602,190.264z"/>
		<path fill-rule="evenodd" clip-rule="evenodd" fill="#464647" d="M35.802,190.199c0-1.359-0.002-2.718,0.001-4.077
			c0.001-0.394-0.026-0.993,0.553-0.758c0.763,0.31,1.427,0.167,2.144-0.017c0.329-0.085,0.711-0.042,0.645,0.423
			c-0.069,0.483,0.388,1.23-0.375,1.403c-1.006,0.228-1.105,0.863-1.095,1.687c0.02,1.559-0.003,3.118,0.01,4.677
			c0.005,0.6-0.141,1.108-0.693,1.421c-0.731,0.413-1.178,0.162-1.187-0.683C35.792,192.917,35.802,191.558,35.802,190.199z"/>
		<path fill-rule="evenodd" clip-rule="evenodd" fill="#444445" d="M151.821,190.452c0-1.197,0.009-2.395-0.004-3.592
			c-0.008-0.603,0.123-1.126,0.723-1.384c0.656-0.282,1.133-0.313,1.116,0.672c-0.04,2.474-0.015,4.949-0.014,7.424
			c0,0.546-0.129,1.023-0.627,1.339c-0.284,0.18-0.592,0.268-0.912,0.179c-0.451-0.126-0.27-0.524-0.273-0.806
			C151.81,193.007,151.821,191.729,151.821,190.452z"/>
		<path fill-rule="evenodd" clip-rule="evenodd" fill="#444445" d="M58.603,189.883c0,1.197-0.001,2.395,0.001,3.592
			c0.001,0.534-0.067,1.037-0.548,1.381c-0.308,0.221-0.651,0.346-1.013,0.228c-0.427-0.139-0.252-0.537-0.254-0.821
			c-0.015-2.475-0.003-4.949-0.012-7.424c-0.002-0.554,0.118-1.025,0.633-1.323c0.744-0.43,1.178-0.202,1.189,0.655
			C58.615,187.407,58.604,188.645,58.603,189.883z"/>
		<path fill-rule="evenodd" clip-rule="evenodd" fill="#454546" d="M69.554,143.841c-1.652-0.441-2.243-1.296-1.891-2.661
			c0.331-1.279,2.195-2.53,3.315-2.26c0.412,0.1,0.341,0.382,0.341,0.641c-0.002,1.118,0.035,2.24-0.046,3.354
			c-0.094,1.284-1.031,2.382-2.214,2.698c-0.313,0.084-0.763,0.334-0.949-0.096c-0.153-0.353,0.18-0.656,0.464-0.896
			C68.874,144.369,69.314,144.304,69.554,143.841z"/>
		<path fill-rule="evenodd" clip-rule="evenodd" fill="#454546" d="M45.773,143.883c-1.629-0.515-2.187-1.292-1.889-2.621
			c0.297-1.325,1.975-2.508,3.25-2.342c0.401,0.052,0.432,0.262,0.428,0.557c-0.016,1.198,0.041,2.402-0.069,3.592
			c-0.119,1.294-1.274,2.436-2.459,2.612c-0.233,0.035-0.541,0.135-0.669-0.087c-0.149-0.257,0.037-0.523,0.212-0.753
			C44.896,144.424,45.515,144.383,45.773,143.883z"/>
		<path fill-rule="evenodd" clip-rule="evenodd" fill="#454546" d="M32.683,143.761c-0.24,0-0.479,0-0.719,0
			c-2.714,0-3.36-0.716-3.117-3.465c0.016-0.184,0.025-0.442,0.14-0.526c0.227-0.167,0.457,0.035,0.637,0.18
			c0.513,0.407,0.434,0.996,0.417,1.55c-0.022,0.754,0.296,1.096,1.073,1.068c0.997-0.034,1.998-0.043,2.994,0.002
			c0.898,0.041,1.203-0.357,1.187-1.216c-0.012-0.662-0.199-1.368,0.238-1.979c0.166-0.231,0.397-0.446,0.693-0.401
			c0.421,0.063,0.196,0.439,0.253,0.678c0.018,0.075,0.001,0.159,0.003,0.239C36.571,143.013,36.506,143.977,32.683,143.761z"/>
		<path fill-rule="evenodd" clip-rule="evenodd" fill="#454546" d="M79.019,140.414c0,0.516,0.053,1.039-0.011,1.548
			c-0.144,1.159-1.146,1.926-2.266,1.79c-1.124-0.137-1.957-1.262-1.786-2.412c0.234-1.577,1.87-2.899,3.493-2.868
			c0.469,0.009,0.639,0.175,0.615,0.629c-0.023,0.437-0.005,0.875-0.005,1.313C79.046,140.413,79.033,140.414,79.019,140.414z"/>
		<path fill-rule="evenodd" clip-rule="evenodd" fill="#444445" d="M65.28,143.749c0-2.281,0.002-4.468-0.003-6.653
			c0-0.327,0.036-0.632,0.248-0.897c0.181-0.227,0.401-0.437,0.694-0.389c0.409,0.068,0.251,0.438,0.253,0.681
			c0.013,1.948,0.009,3.897,0.003,5.847C66.474,143.045,66.187,143.549,65.28,143.749z"/>
		<path fill-rule="evenodd" clip-rule="evenodd" fill="#444445" d="M133.201,143.756c0-2.315,0.004-4.537-0.004-6.76
			c-0.002-0.385,0.122-0.701,0.396-0.958c0.179-0.167,0.388-0.302,0.64-0.202c0.24,0.095,0.162,0.335,0.162,0.515
			c0.005,2.028,0.008,4.057-0.007,6.085C134.384,143.104,134.058,143.553,133.201,143.756z"/>
		<path fill-rule="evenodd" clip-rule="evenodd" fill="#454546" d="M82.217,141.187c-0.042,0.714-0.045,1.433-0.136,2.14
			c-0.104,0.798-0.604,1.391-1.243,1.82c-0.547,0.368-1.411,0.95-1.792,0.397c-0.414-0.601,0.517-0.985,1.036-1.321
			c0.709-0.46,0.932-1.146,0.939-1.947c0.007-0.834-0.003-1.672,0.065-2.501c0.034-0.417,0.355-0.798,0.779-0.767
			c0.541,0.041,0.272,0.558,0.304,0.865c0.045,0.433,0.012,0.874,0.012,1.312C82.193,141.186,82.205,141.187,82.217,141.187z"/>
		<path fill-rule="evenodd" clip-rule="evenodd" fill="#F3F3F3" d="M140.706,142.79c-0.342-0.083-0.695-0.137-1.023-0.257
			c-0.636-0.233-0.805-0.708-0.599-1.331c0.229-0.691,0.687-1.165,1.413-1.268c0.327-0.046,0.289,0.3,0.293,0.523
			c0.014,0.787,0.017,1.575,0.023,2.362L140.706,142.79z"/>
		<path fill-rule="evenodd" clip-rule="evenodd" fill="#4D4D4E" d="M153.652,183.196c-0.019,0.725-0.345,1.085-0.945,1.078
			c-0.597-0.006-0.972-0.401-0.955-0.979c0.015-0.501,0.334-0.878,0.901-0.904C153.283,182.361,153.569,182.725,153.652,183.196z"/>
		<path fill-rule="evenodd" clip-rule="evenodd" fill="#4D4D4E" d="M57.639,184.296c-0.579-0.104-0.976-0.445-0.927-1.025
			c0.046-0.554,0.423-0.936,1.045-0.879c0.55,0.05,0.845,0.387,0.845,0.941C58.601,183.961,58.227,184.237,57.639,184.296z"/>
		<path fill-rule="evenodd" clip-rule="evenodd" fill="#646465" d="M163.208,137.147c-0.448,0.496-0.968-0.184-1.298,0.337
			c0.261,0.648,1.234-0.098,1.433,0.799c-0.734,0.156-1.499,0.319-2.119-0.108c-0.16-0.11-0.072-1.001,0.391-1.349
			C162.222,136.369,162.702,136.689,163.208,137.147z"/>
		<path fill-rule="evenodd" clip-rule="evenodd" fill="#535354" d="M53.527,137.978c-0.499-0.038-0.924,0.779-1.472,0.13
			c-0.232-0.275-0.254-0.565-0.016-0.858c0.529-0.65,0.988,0.087,1.485,0.072C53.724,137.539,53.714,137.758,53.527,137.978z"/>
		<path fill-rule="evenodd" clip-rule="evenodd" fill="#606061" d="M33.389,139.46c-0.452-0.083-0.765-0.305-0.771-0.696
			c-0.007-0.462,0.334-0.741,0.783-0.714c0.396,0.023,0.656,0.313,0.64,0.729C34.024,139.206,33.713,139.378,33.389,139.46z"/>
		<path fill-rule="evenodd" clip-rule="evenodd" fill="#565657" d="M78.673,137.102c-0.044,0.365-0.205,0.67-0.632,0.692
			c-0.461,0.025-0.773-0.219-0.775-0.684c-0.002-0.402,0.285-0.645,0.687-0.662C78.369,136.43,78.596,136.68,78.673,137.102z"/>
		<path fill-rule="evenodd" clip-rule="evenodd" fill="#565657" d="M140.829,137.804c-0.374-0.023-0.668-0.242-0.686-0.635
			c-0.021-0.458,0.284-0.731,0.747-0.718c0.412,0.011,0.664,0.28,0.647,0.687C141.522,137.53,141.291,137.787,140.829,137.804z"/>
		<path fill-rule="evenodd" clip-rule="evenodd" fill="#535354" d="M31.783,139.438c-0.408-0.052-0.669-0.289-0.683-0.694
			c-0.015-0.424,0.267-0.672,0.675-0.685c0.427-0.013,0.659,0.252,0.668,0.676C32.454,139.17,32.206,139.387,31.783,139.438z"/>
		<path fill-rule="evenodd" clip-rule="evenodd" fill="#535354" d="M109.917,137.336c0.427-0.307,0.861-0.6,1.301-0.031
			c0.23,0.298,0.136,0.602-0.104,0.836c-0.47,0.458-0.836,0.111-1.197-0.193C109.721,137.743,109.734,137.539,109.917,137.336z"/>
		<path fill-rule="evenodd" clip-rule="evenodd" fill="#575758" d="M88.708,144.52c0.408,0.037,0.687,0.263,0.71,0.649
			c0.028,0.446-0.235,0.751-0.704,0.74c-0.403-0.009-0.641-0.271-0.643-0.681C88.069,144.813,88.335,144.609,88.708,144.52z"/>
		<path fill-rule="evenodd" clip-rule="evenodd" fill="#535354" d="M93.118,137.335c0.394-0.29,0.795-0.585,1.236-0.089
			c0.247,0.277,0.234,0.595-0.012,0.858c-0.458,0.492-0.847,0.173-1.224-0.142C92.92,137.754,92.932,137.544,93.118,137.335z"/>
		<path fill-rule="evenodd" clip-rule="evenodd" fill="#4B4B4C" d="M93.118,137.335c0,0.209,0,0.418,0,0.628
			c-0.213,0.106-0.418,0.233-0.641,0.314c-0.291,0.105-0.553,0.025-0.744-0.226c-0.195-0.256-0.164-0.532-0.006-0.783
			c0.173-0.275,0.459-0.315,0.743-0.23C92.694,137.105,92.902,137.233,93.118,137.335z"/>
		<path fill-rule="evenodd" clip-rule="evenodd" fill="#484849" d="M109.917,137.336c0,0.204-0.001,0.407-0.001,0.611
			c-0.21,0.11-0.411,0.242-0.632,0.326c-0.287,0.108-0.557,0.039-0.738-0.219c-0.174-0.248-0.186-0.524-0.011-0.78
			c0.179-0.263,0.45-0.325,0.737-0.234C109.496,137.11,109.702,137.235,109.917,137.336z"/>
		<path fill-rule="evenodd" clip-rule="evenodd" fill="#4B4B4C" d="M139.342,136.465c0.398,0.058,0.628,0.284,0.604,0.704
			c-0.023,0.425-0.281,0.634-0.694,0.617c-0.438-0.017-0.619-0.31-0.608-0.705C138.654,136.66,138.908,136.455,139.342,136.465z"/>
		<path fill-rule="evenodd" clip-rule="evenodd" fill="#4B4B4C" d="M77.069,137.175c-0.043,0.427-0.293,0.63-0.705,0.61
			c-0.437-0.021-0.614-0.315-0.6-0.711c0.015-0.422,0.27-0.638,0.693-0.603C76.875,136.507,77.074,136.759,77.069,137.175z"/>
		<path fill-rule="evenodd" clip-rule="evenodd" fill="#484849" d="M53.527,137.978c-0.001-0.219-0.002-0.438-0.003-0.656
			c0.345-0.367,0.728-0.481,1.106-0.077c0.241,0.258,0.243,0.597-0.012,0.847C54.233,138.466,53.852,138.392,53.527,137.978z"/>
		<path fill-rule="evenodd" clip-rule="evenodd" fill="#FEFEFE" d="M164.4,165.563c0,2.398,0.009,4.798-0.003,7.196
			c-0.008,1.547-1.032,2.648-2.456,2.681c-1.478,0.033-2.606-1.08-2.612-2.661c-0.018-4.798-0.016-9.596-0.001-14.394
			c0.004-1.649,1.024-2.719,2.532-2.728c1.515-0.009,2.529,1.061,2.537,2.708C164.408,160.765,164.4,163.163,164.4,165.563z"/>
		<path fill-rule="evenodd" clip-rule="evenodd" fill="#FDFEFE" d="M142.485,159.721c0.671,3.158,1.304,6.325,2.037,9.469
			c0.218,0.933-0.056,1.074-0.88,1.023c-0.996-0.062-1.998-0.01-2.997-0.018c-0.308-0.003-0.676,0.066-0.558-0.482
			c0.715-3.335,1.417-6.673,2.123-10.009C142.303,159.709,142.395,159.715,142.485,159.721z"/>
		<path fill-rule="evenodd" clip-rule="evenodd" fill="#FDFEFE" d="M104.085,159.709c0.678,3.197,1.322,6.402,2.055,9.588
			c0.188,0.816-0.033,0.949-0.766,0.914c-1.036-0.05-2.077-0.021-3.116-0.01c-0.423,0.005-0.676-0.044-0.556-0.596
			c0.719-3.295,1.409-6.597,2.108-9.896C103.902,159.709,103.993,159.709,104.085,159.709z"/>
		<path fill-rule="evenodd" clip-rule="evenodd" fill="#FDFEFE" d="M37.6,159.682c0.688,3.252,1.346,6.455,2.059,9.645
			c0.152,0.68,0.075,0.956-0.674,0.881c-0.475-0.048-0.958-0.009-1.438-0.009c-2.494,0-2.486,0.002-1.963-2.382
			c0.547-2.492,1.076-4.989,1.616-7.483C37.248,160.112,37.198,159.839,37.6,159.682z"/>
		<path fill-rule="evenodd" clip-rule="evenodd" fill="#EFEFEF" d="M126.027,141.254c0.105-0.278-0.208-0.869,0.297-0.833
			c0.713,0.052,1.034,0.684,1.108,1.354c0.052,0.462-0.235,0.807-0.699,0.767C125.935,142.475,126.051,141.815,126.027,141.254z"/>
		<path fill-rule="evenodd" clip-rule="evenodd" fill="#FCFCFC" d="M81.961,191.662c-0.009-0.761,1.021-2.049,1.623-2.03
			c0.219,0.007,1.777,1.907,1.787,2.178c0.022,0.641-1.005,1.571-1.748,1.581C82.764,193.403,81.973,192.579,81.961,191.662z"/>
		<path fill-rule="evenodd" clip-rule="evenodd" fill="#F9F9F9" d="M83.261,185.89c0.02-0.781,0.3-1.235,0.995-1.207
			c0.603,0.024,0.955,0.434,0.928,1.031c-0.031,0.695-0.463,1.389-1.066,1.416C83.453,187.161,83.391,186.334,83.261,185.89z"/>
		<path fill-rule="evenodd" clip-rule="evenodd" fill="#FEFEFE" d="M167.55,190.347c0,0.638,0.032,1.277-0.01,1.912
			c-0.039,0.598-0.408,0.942-1.011,0.969c-0.662,0.03-1.113-0.324-1.141-0.965c-0.056-1.313-0.059-2.632,0-3.944
			c0.028-0.631,0.493-1.013,1.139-0.978c0.643,0.034,1.015,0.43,1.03,1.092c0.015,0.638,0.003,1.276,0.003,1.914
			C167.557,190.347,167.554,190.347,167.55,190.347z"/>
		<path fill-rule="evenodd" clip-rule="evenodd" fill="#FEFEFE" d="M72.516,190.363c0,0.598,0.017,1.196-0.004,1.794
			c-0.024,0.654-0.377,1.051-1.04,1.068c-0.723,0.02-1.124-0.394-1.14-1.098c-0.029-1.235-0.038-2.473,0.002-3.707
			c0.023-0.698,0.466-1.114,1.169-1.077c0.643,0.034,1.004,0.444,1.015,1.106c0.01,0.638,0.002,1.275,0.002,1.913
			C72.52,190.363,72.518,190.363,72.516,190.363z"/>
		<path fill-rule="evenodd" clip-rule="evenodd" fill="#EDEDED" d="M53.969,141.352c0.012,0.57,0.039,1.142-0.676,1.192
			c-0.47,0.033-0.73-0.304-0.689-0.76c0.061-0.674,0.387-1.319,1.082-1.342C54.239,140.424,53.84,141.075,53.969,141.352z"/>
		<path fill-rule="evenodd" clip-rule="evenodd" fill="#EFEFEF" d="M58.477,140.371c0.637,0.304,1.029,0.779,1.035,1.478
			c0.004,0.464-0.316,0.795-0.771,0.688c-0.893-0.209-0.576-0.99-0.624-1.58C58.097,140.702,58.054,140.383,58.477,140.371z"/>
		<path fill-rule="evenodd" clip-rule="evenodd" fill="#FDFDFD" d="M52.833,190.274c0.001,0.639,0.024,1.278-0.005,1.916
			c-0.031,0.66-0.413,1.032-1.073,1.038c-0.663,0.007-1.077-0.377-1.097-1.021c-0.042-1.316-0.036-2.636-0.001-3.952
			c0.017-0.651,0.426-1.039,1.079-1.041c0.645-0.001,1.06,0.354,1.089,1.023C52.855,188.916,52.832,189.596,52.833,190.274z"/>
		<path fill-rule="evenodd" clip-rule="evenodd" fill="#FBFBFB" d="M133.967,191.725c0.014,0.867-0.189,1.533-1.167,1.499
			c-0.738-0.025-1.062-0.541-1.025-1.218c0.054-1.026,0.893-1.112,1.647-1.209C134.364,190.677,133.774,191.458,133.967,191.725z"/>
		<path fill-rule="evenodd" clip-rule="evenodd" fill="#FBFBFB" d="M45.163,191.574c0.02,0.874-0.068,1.601-1.057,1.652
			c-0.737,0.039-1.12-0.431-1.133-1.113c-0.021-1.11,0.859-1.199,1.659-1.322C45.495,190.66,44.987,191.381,45.163,191.574z"/>
		<path fill-rule="evenodd" clip-rule="evenodd" fill="#FDFDFD" d="M107.081,190.246c0,0.6,0.004,1.199-0.001,1.799
			c-0.006,0.702-0.325,1.163-1.061,1.181c-0.726,0.018-1.116-0.409-1.129-1.115c-0.023-1.278-0.027-2.559,0.006-3.837
			c0.017-0.641,0.385-1.052,1.057-1.063c0.732-0.014,1.097,0.409,1.12,1.117c0.021,0.639,0.004,1.279,0.004,1.919
			C107.078,190.246,107.08,190.246,107.081,190.246z"/>
		<path fill-rule="evenodd" clip-rule="evenodd" fill="#F7F7F7" d="M163.015,141.506c-0.267,0.326,0.383,1.035-0.521,1.057
			c-0.555,0.014-0.969-0.186-0.918-0.8c0.057-0.68,0.427-1.344,1.109-1.333C163.285,140.439,162.774,141.155,163.015,141.506z"/>
		<path fill-rule="evenodd" clip-rule="evenodd" fill="#EFEFEF" d="M167.541,141.248c0.121-0.284-0.214-0.881,0.322-0.826
			c0.705,0.072,1.03,0.696,1.089,1.373c0.04,0.462-0.252,0.798-0.719,0.746C167.438,142.454,167.581,141.788,167.541,141.248z"/>
		<path fill-rule="evenodd" clip-rule="evenodd" fill="#F3F3F3" d="M110.411,141.194c-0.019,0.626,0.086,1.276-0.706,1.345
			c-0.481,0.042-0.743-0.346-0.685-0.776c0.089-0.652,0.409-1.306,1.117-1.351C110.642,140.381,110.236,140.997,110.411,141.194z"/>
		<path fill-rule="evenodd" clip-rule="evenodd" fill="#F8F8F8" d="M38.888,142.563c0.38-0.949,0.889-1.462,1.815-1.311
			c0.34,0.056,0.576,0.406,0.439,0.722C40.671,143.067,39.749,142.385,38.888,142.563z"/>
		<path fill-rule="evenodd" clip-rule="evenodd" fill="#FAFAFA" d="M70.13,141.322c-0.031,0.533,0.085,1.148-0.662,1.212
			c-0.496,0.042-0.741-0.34-0.699-0.77c0.061-0.624,0.381-1.257,1.016-1.319C70.44,140.38,69.971,141.051,70.13,141.322z"/>
		<path fill-rule="evenodd" clip-rule="evenodd" fill="#FAFAFA" d="M46.37,141.336c-0.029,0.538,0.075,1.149-0.677,1.198
			c-0.497,0.031-0.734-0.356-0.685-0.784c0.071-0.62,0.392-1.259,1.03-1.308C46.674,140.394,46.213,141.06,46.37,141.336z"/>
		<path fill-rule="evenodd" clip-rule="evenodd" fill="#F3F3F3" d="M77.929,140.936c-0.089,0.707,0.082,1.588-0.991,1.604
			c-0.564,0.008-0.855-0.446-0.804-0.986c0.079-0.835,0.578-1.495,1.381-1.589C78.206,139.883,77.762,140.618,77.929,140.936z"/>
	</g>
</g>
</svg>
