<?xml version="1.0" encoding="UTF-8"?>
<svg id="Layer_1" data-name="Layer 1" xmlns="http://www.w3.org/2000/svg" viewBox="0 0 163.646 32.371">
  <defs>
    <style>
      .cls-1 {
        fill: #fff;
      }

      .cls-2 {
        fill: #ed1c24;
      }
    </style>
  </defs>
  <rect class="cls-2" width="34.575" height="32.371"/>
  <g>
    <path class="cls-1" d="m13.857,9.272c-.073-.006-.131-.014-.189-.014-.181-.003-.363-.005-.544-.002-.119.002-.17-.047-.161-.168.006-.083,0-.167,0-.251-.005-1.009-.01-2.018-.015-3.028,0-.056,0-.112.002-.167.007-.168.043-.205.209-.207.27-.002.54-.002.809,0,.734.004,1.469.011,2.203.014.247.001.493-.01.739-.012.193-.001.221.028.222.216.012,2.916.023,5.832.035,8.748.004,1.027.018,2.055.012,3.083-.002.213-.038.441-.123.635-.176.405-.51.616-.957.619-.753.004-1.507.002-2.261,0-.171,0-.195-.034-.195-.243-.002-2.172-.004-4.344-.005-6.516,0-.586.006-1.172-.003-1.758-.004-.285.034-.554.181-.802.011-.02.019-.042.026-.064.005-.018.007-.036.015-.081"/>
    <path class="cls-1" d="m17.932,11.633c0-.967.002-1.935,0-2.902-.003-1.004-.011-2.009-.018-3.013-.002-.256.009-.267.265-.267,1.232,0,2.465.002,3.698.002.197,0,.223.024.225.227.009,1.13.018,2.26.026,3.39,0,.17-.02.189-.195.191-.205.001-.409.002-.614.002-.101,0-.134.045-.075.128.195.274.205.593.207.907.011,1.54.012,3.079.019,4.619.005,1.051.014,2.102.022,3.153,0,.167.012.334.015.501.002.118-.051.176-.178.175-.744-.004-1.488-.009-2.232-.004-.703.005-1.106-.551-1.123-1.111-.03-.957-.027-1.916-.031-2.874-.005-1.042,0-2.083,0-3.125h-.01Z"/>
    <path class="cls-1" d="m7.731,10.952c1.093,0,2.186.011,3.279-.005.456-.007.755.304.76.739.007.591.004,1.181.002,1.772,0,.156-.027.177-.196.177-1.158,0-2.316-.004-3.475,0-.123,0-.249.023-.367.056-.165.047-.254.177-.269.339-.024.268-.029.537-.038.806-.005.167-.002.334,0,.501.002.25.003.511.258.648.12.065.273.095.411.096,1.158.008,2.316.007,3.475.005.123,0,.216.02.216.166-.003.599.003,1.199-.014,1.798-.013.454-.346.681-.769.678-1.456-.011-2.912-.006-4.368-.009-.83-.001-1.459-.374-1.946-1.032-.234-.316-.384-.666-.49-1.036-.049-.172-.074-.356-.074-.535-.004-1.642,0-3.284,0-4.926,0-.213.032-.242.242-.242h3.363v.003h0Z"/>
    <path class="cls-1" d="m25.554,10.981c.772,0,1.544-.006,2.316.002,1.308.013,2.198.688,2.782,1.808.285.547.404,1.143.405,1.76,0,.418.015.839-.028,1.254-.077.764-.377,1.443-.897,2.012-.317.346-.702.598-1.144.768-.377.146-.769.178-1.163.178-1.213.003-2.426-.007-3.639-.014-.46-.003-.728-.243-.746-.703-.023-.585-.018-1.172-.022-1.758,0-.148.037-.174.203-.174.976.001,1.954-.021,2.93.011.75.025,1.266-.66,1.202-1.328-.039-.41-.21-.732-.524-.973-.191-.147-.439-.169-.677-.176-.228-.007-.456,0-.684-.004-.845-.009-1.512-.352-1.995-1.053-.263-.383-.427-.798-.465-1.263-.003-.037-.009-.074-.018-.11-.049-.205-.005-.26.209-.26.563,0,1.125.002,1.688.004h.265v.018"/>
    <path class="cls-1" d="m7.925,9.252h-3.601c-.236,0-.278-.031-.249-.269.044-.367.089-.73.215-1.086.209-.584.514-1.1.955-1.532.412-.403.89-.704,1.458-.828.288-.063.587-.103.882-.105,1.312-.01,2.623-.003,3.935-.002.227,0,.247.019.247.245.002,1.13.002,2.261.002,3.391,0,.161-.027.187-.203.187h-3.642v-.003.002Z"/>
    <path class="cls-1" d="m27.172,9.274h-3.53c-.331,0-.338-.007-.339-.33-.004-1.088-.009-2.176-.013-3.265,0-.202.017-.221.224-.221,1.307,0,2.613.005,3.92,0,1.005-.005,1.836.383,2.505,1.112.476.518.793,1.13.929,1.826.045.232.074.466.107.7.016.11-.016.175-.149.174-.358-.004-.716.006-1.074.007-.86.001-1.72,0-2.581,0v-.002h0Z"/>
    <path class="cls-1" d="m29.917,23.706c-.038.214-.063.519-.15.805-.178.588-.597.938-1.192,1.068-.417.091-.842.092-1.258-.007-.866-.205-1.325-.741-1.394-1.635-.034-.441-.023-.882.117-1.311.166-.51.493-.856,1.013-1.009.533-.157,1.07-.164,1.606-.027.734.189,1.087.707,1.192,1.424.029.199.038.401.065.691m-.96-.062c-.023-.233-.027-.417-.061-.595-.137-.709-.693-1.023-1.383-.791-.24.081-.432.227-.512.467-.186.56-.193,1.128.016,1.683.142.377.479.555.929.539.455-.016.762-.216.879-.611.071-.239.095-.492.132-.691"/>
    <path class="cls-1" d="m19.132,23.198v.728h-2.25c.047.617.273.864.866.915.376.032.756.022,1.134.03.075.002.15,0,.242,0v.724c-.17,0-.338.003-.506,0-.428-.009-.858-.004-1.285-.035-.685-.05-1.105-.449-1.308-1.084-.208-.65-.229-1.307.047-1.942.282-.647.765-1.014,1.503-.996.51.012,1.021.002,1.548.002v.724c-.138,0-.275-.002-.412,0-.34.005-.682-.007-1.021.022-.593.05-.799.289-.809.913h2.251Z"/>
    <path class="cls-1" d="m8.075,21.539v.724c-.165,0-.321-.002-.477,0-.315.004-.632-.007-.945.018-.607.05-.813.285-.826.917h2.242v.726h-2.242c.044.618.268.864.862.914.382.032.768.023,1.152.031.074.002.147,0,.233,0v.693c-.012.009-.022.022-.032.022-.586-.006-1.172.008-1.756-.026-.693-.04-1.117-.45-1.32-1.093s-.224-1.294.046-1.923c.278-.647.756-1.021,1.494-1.007.516.01,1.033.002,1.569.002"/>
    <path class="cls-1" d="m12.184,25.594c-.35,0-.658.006-.964-.006-.051-.002-.113-.07-.147-.122-.232-.353-.457-.71-.686-1.065-.033-.051-.071-.1-.119-.168-.252.403-.496.784-.729,1.171-.083.137-.171.208-.344.196-.261-.018-.524-.005-.829-.005.22-.328.414-.62.609-.911.225-.335.445-.673.677-1.003.071-.1.065-.171,0-.269-.369-.55-.731-1.103-1.096-1.656-.038-.057-.074-.115-.138-.217.265,0,.495.018.721-.005.258-.027.414.054.535.294.172.341.387.661.601,1.019.203-.312.418-.588.572-.893.17-.339.402-.476.774-.419.17.026.347.004.557.004-.052.085-.081.138-.115.188-.383.563-.764,1.127-1.153,1.686-.07.1-.068.168,0,.267.38.558.752,1.121,1.127,1.682.042.063.081.126.149.232"/>
    <path class="cls-1" d="m15.49,24.872v.702c-.029.007-.053.018-.076.018-.568,0-1.136.013-1.703-.005-.661-.02-1.127-.347-1.343-.976-.235-.682-.236-1.377.002-2.059.225-.646.715-.965,1.378-.996.572-.027,1.147-.006,1.737-.006v.713c-.236,0-.468-.004-.699.001-.29.007-.582.002-.867.039-.372.049-.62.26-.696.644-.088.447-.078.889.05,1.327.096.333.321.534.663.557.446.031.894.029,1.341.04.067.002.135,0,.213,0"/>
    <path class="cls-1" d="m19.773,21.547h.841v.226c0,.675-.002,1.35.002,2.024,0,.163.016.327.03.49.031.35.196.524.55.548.364.024.73.025,1.096.035.068.002.136,0,.216,0v.702c-.029.007-.059.02-.088.02-.466,0-.934.011-1.4-.005-.698-.024-1.2-.442-1.235-1.133-.048-.96-.012-1.925-.012-2.908"/>
    <path class="cls-1" d="m23.871,21.554v.253c.011.832.014,1.664.036,2.495.009.324.198.509.523.532.364.025.73.026,1.095.037.074.002.149,0,.238,0v.7c-.025.007-.054.022-.083.022-.473,0-.946.011-1.419-.006-.621-.023-1.087-.401-1.205-.96-.035-.165-.053-.338-.054-.506-.005-.813-.003-1.627-.003-2.441,0-.037.005-.074.01-.126h.862Z"/>
    <path class="cls-1" d="m45.716,24.489c-.61,0-1.068-.102-1.386-.318-.519-.356-.807-.923-.807-1.57s.287-1.209.807-1.566c.318-.216.776-.319,1.386-.319h.091v.858c-.066-.005-.126-.005-.181-.005-.605,0-.968.178-1.129.594h1.31v.842h-1.325c.116.415.504.626,1.159.626.05,0,.111,0,.166-.005v.864h-.091Z"/>
    <path class="cls-1" d="m47.716,23.755c-.327.453-.811.691-1.492.734v-.885c.665-.027,1.043-.41,1.043-1.004s-.378-.972-1.043-.999v-.885c.665.032,1.149.27,1.492.74.343-.47.827-.708,1.492-.74v.885c-.665.027-1.043.405-1.043.999s.378.977,1.043,1.004v.885c-.68-.043-1.164-.281-1.492-.734"/>
    <path class="cls-1" d="m51.545,21.596c-.781,0-1.189.367-1.189,1.005,0,.642.408,1.009,1.189,1.009.065,0,.131,0,.196-.005v.885h-.091c-.61,0-1.068-.102-1.386-.319-.519-.356-.807-.923-.807-1.57s.287-1.209.807-1.566c.318-.216.776-.319,1.386-.319h.091v.886c-.066-.006-.131-.006-.196-.006"/>
    <path class="cls-1" d="m54.31,24.489c-.61,0-1.068-.102-1.386-.318-.519-.356-.807-.923-.807-1.57s.287-1.209.807-1.566c.318-.216.776-.319,1.386-.319h.091v.858c-.066-.005-.126-.005-.181-.005-.605,0-.968.178-1.129.594h1.31v.842h-1.325c.116.415.504.626,1.159.626.05,0,.111,0,.166-.005v.864h-.091Z"/>
    <path class="cls-1" d="m55.826,20.716v2.505c0,.259.126.389.368.389h.681v.88h-.695c-.832,0-1.23-.405-1.23-1.263v-2.51h.877,0Z"/>
    <path class="cls-1" d="m58.108,20.716v2.505c0,.259.126.389.368.389h.681v.88h-.695c-.832,0-1.23-.405-1.23-1.263v-2.51h.877,0Z"/>
    <path class="cls-1" d="m59.765,21.218c.343-.367.791-.567,1.275-.567s.937.199,1.28.572c.343.367.524.853.524,1.377s-.181,1.014-.524,1.382c-.343.372-.796.572-1.28.572s-.932-.205-1.275-.572c-.348-.378-.534-.853-.534-1.382s.186-1.004.534-1.382m1.275,2.397c.499,0,.907-.448.907-1.02s-.403-1.015-.907-1.015-.912.442-.912,1.015c0,.567.413,1.02.912,1.02"/>
    <polygon class="cls-1" points="66.299 24.489 65.422 24.489 65.422 21.596 64.666 21.596 64.666 20.716 67.054 20.716 67.054 21.596 66.299 21.596 66.299 24.489"/>
    <path class="cls-1" d="m67.447,22.017c0-.826.514-1.371,1.26-1.371.706,0,1.235.513,1.235,1.096,0,.378-.207.691-.575.821.459.054.63.286.63.783v1.145h-.877v-.912c0-.421-.151-.518-.575-.518h-.081v-.848h.131c.287,0,.428-.123.428-.356,0-.205-.141-.351-.322-.351-.237,0-.378.184-.378.524v2.456h-.877v-2.469Z"/>
    <path class="cls-1" d="m70.484,22.26c0-1.01.554-1.609,1.34-1.609s1.346.599,1.346,1.609v2.23h-.872v-1.398h-.786v-.885h.786v-.043c0-.367-.186-.594-.474-.594-.302,0-.468.221-.468.637v2.283h-.872v-2.23h0Z"/>
    <path class="cls-1" d="m73.764,20.716h.645c.535,0,.963.038,1.336.286.549.367.857.945.857,1.598,0,.626-.287,1.198-.776,1.565-.262.195-.61.302-1.049.324v-.906c.555-.022.922-.432.922-.988,0-.562-.388-.988-.973-.988-.03,0-.055.005-.085.005v2.877h-.877v-3.773h0Z"/>
    <rect class="cls-1" x="77.108" y="20.716" width=".877" height="3.773"/>
    <path class="cls-1" d="m78.614,21.294c0-.411.217-.659.534-.659s.474.205.67.594l.464.896c.147.286.277.562.358.832-.045-.551-.06-.907-.06-1.063v-1.177h.847v3.32c0,.308-.181.513-.443.513-.272,0-.398-.168-.549-.459l-.686-1.328c-.126-.248-.277-.513-.383-.842.06.465.096.88.096,1.269v1.301h-.847v-3.197Z"/>
    <path class="cls-1" d="m84.55,21.903c-.252-.237-.499-.356-.766-.356-.534,0-.953.448-.953,1.047,0,.584.403,1.02.922,1.02.368,0,.665-.232.801-.631h-.866v-.837h1.839v.156c0,.475-.06.864-.212,1.193-.297.659-.882,1.058-1.557,1.058-.504,0-.957-.199-1.3-.572s-.529-.858-.529-1.382.187-1.005.534-1.377c.343-.372.807-.577,1.321-.577.499,0,.948.194,1.356.588l-.59.669h0Z"/>
    <polygon class="cls-1" points="88.992 24.489 88.115 24.489 88.115 21.596 87.36 21.596 87.36 20.716 89.748 20.716 89.748 21.596 88.992 21.596 88.992 24.489"/>
    <path class="cls-1" d="m90.14,22.017c0-.826.514-1.371,1.26-1.371.706,0,1.235.513,1.235,1.096,0,.378-.207.691-.575.821.459.054.63.286.63.783v1.145h-.877v-.912c0-.421-.151-.518-.575-.518h-.081v-.848h.131c.287,0,.428-.123.428-.356,0-.205-.141-.351-.322-.351-.237,0-.378.184-.378.524v2.456h-.877v-2.469Z"/>
    <path class="cls-1" d="m93.178,22.26c0-1.01.554-1.609,1.341-1.609s1.345.599,1.345,1.609v2.23h-.872v-1.398h-.786v-.885h.786v-.043c0-.367-.186-.594-.473-.594-.302,0-.469.221-.469.637v2.283h-.872v-2.23h0Z"/>
    <path class="cls-1" d="m96.452,21.294c0-.411.217-.659.534-.659s.474.205.67.594l.464.896c.147.286.277.562.358.832-.045-.551-.06-.907-.06-1.063v-1.177h.847v3.32c0,.308-.181.513-.443.513-.272,0-.398-.168-.549-.459l-.686-1.328c-.126-.248-.277-.513-.383-.842.061.465.096.88.096,1.269v1.301h-.847v-3.197Z"/>
    <path class="cls-1" d="m99.782,23.588h1.215c.146,0,.221-.071.221-.184,0-.108-.08-.211-.242-.318l-.676-.438c-.317-.205-.509-.556-.509-.89s.111-.605.312-.794c.252-.232.58-.248,1.043-.248h.807v.863h-.923c-.226,0-.338.027-.338.146,0,.102.076.199.232.302l.661.421c.378.248.58.594.58.987,0,.341-.141.648-.383.832-.282.216-.6.221-.978.221h-1.023v-.902.002Z"/>
    <path class="cls-1" d="m102.658,22.06c0-.853.519-1.414,1.29-1.414.716,0,1.255.583,1.255,1.317,0,.778-.544,1.317-1.421,1.317h-.091v-.902h.136c.302,0,.479-.167.479-.426,0-.232-.156-.405-.378-.405-.242,0-.392.178-.392.507v2.429h-.877v-2.424h0Z"/>
    <path class="cls-1" d="m106.093,21.218c.343-.367.792-.567,1.275-.567s.937.199,1.28.572c.343.367.524.853.524,1.377s-.181,1.014-.524,1.382c-.343.372-.796.572-1.28.572s-.932-.205-1.275-.572c-.347-.378-.534-.853-.534-1.382s.186-1.004.534-1.382m1.275,2.397c.499,0,.907-.448.907-1.02s-.403-1.015-.907-1.015-.912.442-.912,1.015c0,.567.413,1.02.912,1.02"/>
    <path class="cls-1" d="m109.645,22.017c0-.826.514-1.371,1.26-1.371.706,0,1.235.513,1.235,1.096,0,.378-.206.691-.574.821.458.054.63.286.63.783v1.145h-.877v-.912c0-.421-.151-.518-.575-.518h-.08v-.848h.131c.287,0,.428-.123.428-.356,0-.205-.141-.351-.322-.351-.237,0-.378.184-.378.524v2.456h-.877v-2.469Z"/>
    <polygon class="cls-1" points="114.144 24.489 113.267 24.489 113.267 21.596 112.511 21.596 112.511 20.716 114.9 20.716 114.9 21.596 114.144 21.596 114.144 24.489"/>
    <path class="cls-1" d="m115.196,22.26c0-1.01.555-1.609,1.341-1.609s1.346.599,1.346,1.609v2.23h-.872v-1.398h-.786v-.885h.786v-.043c0-.367-.187-.594-.474-.594-.302,0-.469.221-.469.637v2.283h-.872v-2.23h0Z"/>
    <polygon class="cls-1" points="119.811 24.489 118.934 24.489 118.934 21.596 118.178 21.596 118.178 20.716 120.567 20.716 120.567 21.596 119.811 21.596 119.811 24.489"/>
    <rect class="cls-1" x="120.999" y="20.716" width=".877" height="3.773"/>
    <path class="cls-1" d="m122.923,21.218c.343-.367.792-.567,1.275-.567s.937.199,1.28.572c.343.367.524.853.524,1.377s-.181,1.014-.524,1.382c-.343.372-.796.572-1.28.572s-.932-.205-1.275-.572c-.347-.378-.534-.853-.534-1.382s.186-1.004.534-1.382m1.275,2.397c.499,0,.907-.448.907-1.02s-.403-1.015-.907-1.015-.912.442-.912,1.015c0,.567.413,1.02.912,1.02"/>
    <path class="cls-1" d="m126.5,21.294c0-.411.217-.659.534-.659s.474.205.67.594l.464.896c.146.286.277.562.358.832-.046-.551-.061-.907-.061-1.063v-1.177h.847v3.32c0,.308-.182.513-.443.513-.272,0-.398-.168-.549-.459l-.686-1.328c-.126-.248-.277-.513-.383-.842.061.465.096.88.096,1.269v1.301h-.847v-3.197Z"/>
    <path class="cls-1" d="m131.421,22.26c0-1.01.555-1.609,1.341-1.609s1.346.599,1.346,1.609v2.23h-.872v-1.398h-.786v-.885h.786v-.043c0-.367-.187-.594-.474-.594-.302,0-.469.221-.469.637v2.283h-.872v-2.23h0Z"/>
    <path class="cls-1" d="m134.696,21.294c0-.411.217-.659.534-.659s.474.205.67.594l.464.896c.146.286.277.562.358.832-.046-.551-.061-.907-.061-1.063v-1.177h.847v3.32c0,.308-.182.513-.443.513-.272,0-.398-.168-.549-.459l-.686-1.328c-.126-.248-.277-.513-.383-.842.061.465.096.88.096,1.269v1.301h-.847v-3.197Z"/>
    <path class="cls-1" d="m138.126,20.716h.645c.534,0,.962.038,1.335.286.549.367.857.945.857,1.598,0,.626-.288,1.198-.776,1.565-.262.195-.61.302-1.049.324v-.906c.555-.022.923-.432.923-.988,0-.562-.388-.988-.973-.988-.03,0-.055.005-.086.005v2.877h-.877v-3.773h0Z"/>
    <path class="cls-1" d="m142.882,23.588h1.215c.146,0,.221-.071.221-.184,0-.108-.08-.211-.242-.318l-.675-.438c-.318-.205-.509-.556-.509-.89s.111-.605.312-.794c.252-.232.58-.248,1.043-.248h.807v.863h-.922c-.227,0-.338.027-.338.146,0,.102.076.199.232.302l.66.421c.378.248.579.594.579.987,0,.341-.141.648-.383.832-.282.216-.6.221-.978.221h-1.023v-.902.002Z"/>
    <path class="cls-1" d="m147.859,24.489c-.61,0-1.069-.102-1.386-.318-.519-.356-.807-.923-.807-1.57s.287-1.209.807-1.566c.317-.216.776-.319,1.386-.319h.091v.858c-.066-.005-.126-.005-.182-.005-.604,0-.967.178-1.128.594h1.311v.842h-1.326c.116.415.504.626,1.159.626.05,0,.111,0,.167-.005v.864h-.092Z"/>
    <path class="cls-1" d="m148.493,22.017c0-.826.514-1.371,1.26-1.371.706,0,1.235.513,1.235,1.096,0,.378-.206.691-.574.821.458.054.63.286.63.783v1.145h-.877v-.912c0-.421-.151-.518-.575-.518h-.08v-.848h.131c.287,0,.428-.123.428-.356,0-.205-.141-.351-.322-.351-.237,0-.378.184-.378.524v2.456h-.877v-2.469Z"/>
    <path class="cls-1" d="m153.451,23.69c-.141.588-.348.864-.756.864s-.62-.275-.761-.864l-.715-2.974h.877l.468,2.003c.031.124.076.345.131.669.055-.324.096-.545.126-.669l.469-2.003h.877l-.715,2.974h-.001Z"/>
    <rect class="cls-1" x="154.457" y="20.716" width=".877" height="3.773"/>
    <path class="cls-1" d="m157.934,21.596c-.782,0-1.19.367-1.19,1.005,0,.642.408,1.009,1.19,1.009.066,0,.131,0,.196-.005v.885h-.091c-.61,0-1.069-.102-1.386-.319-.519-.356-.807-.923-.807-1.57s.287-1.209.807-1.566c.317-.216.776-.319,1.386-.319h.091v.886c-.065-.006-.131-.006-.196-.006"/>
    <path class="cls-1" d="m160.7,24.489c-.61,0-1.069-.102-1.386-.318-.519-.356-.807-.923-.807-1.57s.287-1.209.807-1.566c.317-.216.776-.319,1.386-.319h.091v.858c-.066-.005-.126-.005-.182-.005-.604,0-.967.178-1.128.594h1.311v.842h-1.326c.116.415.504.626,1.159.626.05,0,.111,0,.167-.005v.864h-.092Z"/>
    <path class="cls-1" d="m161.263,23.588h1.215c.146,0,.221-.071.221-.184,0-.108-.08-.211-.242-.318l-.675-.438c-.318-.205-.509-.556-.509-.89s.111-.605.312-.794c.252-.232.58-.248,1.043-.248h.807v.863h-.922c-.227,0-.338.027-.338.146,0,.102.076.199.232.302l.66.421c.378.248.579.594.579.987,0,.341-.141.648-.383.832-.282.216-.6.221-.978.221h-1.023v-.902.002Z"/>
    <path class="cls-1" d="m46.027,13.583c-1.491,0-2.232-.637-2.232-1.915v-.842l.931-.342v1.183c0,.403.128.684.378.828.196.116.506.171.944.171h2.138c.317,0,.479-.226.479-.67v-1.512l.944-.411v2.189c0,.362-.101.663-.296.903-.222.281-.533.417-.924.417h-2.362Zm.142-3.667l-.627-.663.654-.637.627.664-.654.636h0Zm.823-.663l.654-.637.627.637-.654.663-.627-.663Z"/>
    <path class="cls-1" d="m52.576,13.583h-.951c-.722,0-1.14-.424-1.14-1.129v-4.166l.944-.411v4.078c0,.466.115.711.809.711h.337v.917h0Z"/>
    <path class="cls-1" d="m52.306,13.583v-.917h1.039c-.135-.253-.216-.547-.216-.862,0-.985.783-1.779,1.754-1.779s1.754.793,1.754,1.779-.783,1.779-1.754,1.779h-2.577Zm2.576-.917c.472,0,.857-.383.857-.862s-.385-.869-.857-.869-.85.39-.85.869c0,.472.357.849.816.862h.034Z"/>
    <path class="cls-1" d="m57.662,13.583l-.27-.917h2.448c0-.957-.513-1.792-1.713-1.792l.202-.8c.593,0,.809.041,1.058.13.918.328,1.396,1.423,1.396,2.456v.007h.991v.917h-4.114.002Z"/>
    <path class="cls-1" d="m67.104,13.583h-5.53v-.917h3.804c-.014-.917-.459-1.717-1.423-1.717-.405,0-.863.212-1.127.492-.095-.13-.249-.342-.472-.65.459-.486,1.011-.726,1.666-.726,1.444,0,2.138,1.06,2.314,2.6h.768v.917h0Zm-3.095-3.982l-.627-.663.654-.636.627.663-.654.636Z"/>
    <rect class="cls-1" x="66.909" y="12.666" width="1.443" height=".917"/>
    <rect class="cls-1" x="68.244" y="12.666" width="1.443" height=".917"/>
    <rect class="cls-1" x="69.58" y="12.666" width="1.443" height=".917"/>
    <path class="cls-1" d="m72.877,12.263c0,.362-.101.663-.296.903-.223.28-.533.417-.931.417h-.809v-.917h.614c.317,0,.479-.226.479-.67v-3.708l.944-.411v4.385h0Z"/>
    <polygon class="cls-1" points="74.698 13.583 73.754 13.583 73.754 8.288 74.698 7.877 74.698 13.583"/>
    <path class="cls-1" d="m76.135,14.363s1.328-.444,1.537-.862c-.162.055-.33.082-.492.082-.904,0-1.673-.814-1.673-1.772,0-.985.783-1.786,1.754-1.786,1.187,0,1.754.964,1.754,2.011,0,.123-.014.253-.027.383-.263,2.148-2.226,2.757-2.226,2.757l-.627-.814h0Zm1.126-3.434c-.466,0-.843.39-.843.882,0,.472.377.855.843.855.486,0,.87-.383.87-.855,0-.492-.384-.882-.87-.882"/>
    <path class="cls-1" d="m86.629,13.583h-1.274c-.371.711-1.052,1.135-1.841,1.135-1.187,0-2.131-1.012-2.131-2.326v-1.156l.944-.342v1.409c0,.896.439,1.526,1.194,1.526.742,0,1.18-.568,1.18-1.526v-4.016l.944-.411v4.789h.984v.917h0Z"/>
    <path class="cls-1" d="m86.36,13.583v-.917h1.038c-.135-.253-.216-.547-.216-.862,0-.985.783-1.779,1.754-1.779s1.753.793,1.753,1.779c0,.315-.081.609-.216.862h.883v.917h-4.998.002Zm1.848-3.872l-.627-.663.654-.636.627.663-.654.636Zm.729,2.956c.472,0,.857-.383.857-.862s-.385-.869-.857-.869-.85.39-.85.869c0,.465.338.834.783.862h.068,0Zm.094-3.619l.654-.636.627.636-.654.663-.627-.663Z"/>
    <path class="cls-1" d="m94.19,13.583h-3.042v-.917h.621c.317,0,.479-.219.479-.657v-1.525l.951-.411v1.902c0,.253-.041.479-.115.691h1.106v.917Zm-1.511-3.961l-.627-.663.654-.636.627.663-.654.637h0Z"/>
    <rect class="cls-1" x="94.062" y="12.666" width="1.443" height=".917"/>
    <rect class="cls-1" x="95.398" y="12.666" width="1.443" height=".917"/>
    <path class="cls-1" d="m98.696,12.263c0,.362-.101.663-.296.903-.223.28-.533.417-.931.417h-.809v-.917h.614c.317,0,.479-.226.479-.67v-3.708l.944-.411v4.385h0Z"/>
    <polygon class="cls-1" points="100.517 13.583 99.572 13.583 99.572 8.288 100.517 7.877 100.517 13.583"/>
    <path class="cls-1" d="m101.954,14.363s1.328-.444,1.537-.862c-.162.055-.33.082-.492.082-.904,0-1.673-.814-1.673-1.772,0-.985.783-1.786,1.754-1.786,1.187,0,1.754.964,1.754,2.011,0,.123-.014.253-.027.383-.263,2.148-2.226,2.757-2.226,2.757l-.627-.814h0Zm1.126-3.434c-.466,0-.843.39-.843.882,0,.472.377.855.843.855.486,0,.87-.383.87-.855,0-.492-.385-.882-.87-.882"/>
    <path class="cls-1" d="m107.336,11.811c0-.985.782-1.779,1.753-1.779s1.753.793,1.753,1.779-.782,1.779-1.753,1.779-1.753-.793-1.753-1.779m1.018-2.196l-.627-.663.654-.637.627.664-.654.636h0Zm.735,1.327c-.472,0-.85.39-.85.869s.377.862.85.862.857-.384.857-.862-.384-.869-.857-.869m.088-1.99l.654-.637.627.637-.654.663-.627-.663Z"/>
    <path class="cls-1" d="m111.012,14.445s1.194-.444,1.625-1.341c.155-.315.209-.677.209-1.026,0-.794-.276-1.526-.276-1.526l.877-.479s.331.547.331,1.813c0,.178-.007.377-.02.582-.162,2.161-2.226,2.757-2.226,2.757l-.519-.78h0Z"/>
    <path class="cls-1" d="m116.818,13.583h-.951c-.722,0-1.14-.424-1.14-1.129v-4.166l.944-.411v4.078c0,.466.115.711.809.711h.337v.917h0Z"/>
    <path class="cls-1" d="m122.146,13.583h-5.53v-.917h3.803c-.013-.917-.458-1.717-1.423-1.717-.404,0-.863.212-1.126.492-.095-.13-.25-.343-.472-.65.459-.486,1.012-.725,1.666-.725,1.443,0,2.138,1.06,2.313,2.6h.769v.917h0Zm-3.028,1.71l-.627-.663.654-.636.627.663-.654.636Z"/>
    <rect class="cls-1" x="121.951" y="12.666" width="1.443" height=".917"/>
    <rect class="cls-1" x="123.287" y="12.666" width="1.443" height=".917"/>
    <rect class="cls-1" x="124.622" y="12.666" width="1.443" height=".917"/>
    <path class="cls-1" d="m126.274,9.581l-.594-.623.614-.602.593.623-.613.602Zm2.778,4.002h-3.17v-.917h.621c.317,0,.539-.219.539-.656v-1.526l.951-.411v1.902c0,.253-.04.479-.115.691h1.174v.917h0Zm-1.942-4.625l.621-.602.587.602-.614.623-.593-.623h-.001Z"/>
    <path class="cls-1" d="m128.824,13.583v-.917h.641c.317,0,.478-.219.478-.657v-3.722l.951-.411v4.098c0,.253-.04.479-.115.691h1.106v.917h-3.062,0Z"/>
    <path class="cls-1" d="m133.72,12.263c0,.362-.101.663-.296.903-.223.28-.533.417-.931.417h-.809v-.917h.614c.317,0,.478-.226.478-.67v-3.708l.944-.411v4.385h0Z"/>
    <path class="cls-1" d="m139.264,13.583c-.641,1.211-1.862,1.594-1.862,1.594l-.628-.814s1.16-.39,1.484-.78h-.425c-.911,0-1.686-.807-1.686-1.772,0-.985.783-1.786,1.753-1.786,1.187,0,1.753.964,1.753,2.011,0,.212-.033.438-.067.629h.796v.917h-1.12.002Zm-.621-.917c.081-.185.122-.411.122-.643,0-.54-.243-1.095-.863-1.095-.465,0-.843.39-.843.882,0,.472.378.855.843.855h.742,0Z"/>
    <path class="cls-1" d="m140.155,13.583v-.917h.641c.317,0,.478-.219.478-.657v-3.722l.951-.411v4.098c0,.253-.04.479-.115.691h1.106v.917h-3.062,0Z"/>
    <path class="cls-1" d="m143.197,15.308l-.594-.623.614-.602.593.623-.613.602Zm3.008-1.724h-3.19v-.917h.708c.317,0,.472-.219.472-.657v-1.525l.951-.411v1.902c0,.253-.034.479-.108.691h1.167v.917Zm-2.172,1.102l.621-.602.587.602-.613.623-.594-.623h-.001Z"/>
    <path class="cls-1" d="m146.002,13.583v-.917h.702c.31,0,.478-.164.478-.657v-1.115l.952-.41v1.491c0,.253-.041.486-.115.691h.6c.317,0,.479-.205.479-.615v-1.369l.944-.411v1.704c0,.253-.04.486-.114.691h.6c.317,0,.479-.205.479-.615v-1.499l.951-.41v1.826c0,.253-.041.486-.122.698h1.099v.917h-6.933Z"/>
    <rect class="cls-1" x="152.74" y="12.666" width="1.443" height=".917"/>
    <rect class="cls-1" x="154.076" y="12.666" width="1.443" height=".917"/>
    <rect class="cls-1" x="155.411" y="12.666" width="1.443" height=".917"/>
    <path class="cls-1" d="m156.672,13.583v-.917h3.845c0-.896-.634-1.779-2.26-1.779h-.937l1.524-2.47,1.443-.301-1.45,1.957.027.021v-.021c1.409,0,2.555,1.163,2.555,2.593v.917h-4.748.001Z"/>
    <polygon class="cls-1" points="163.242 13.583 162.297 13.583 162.297 8.288 163.242 7.877 163.242 13.583"/>
  </g>
</svg>