<?xml version="1.0" encoding="UTF-8"?>
<svg id="Layer_1" data-name="Layer 1" xmlns="http://www.w3.org/2000/svg" viewBox="0 0 580.16 369.13">
  <defs>
    <style>
      .cls-1 {
        fill: #2e3690;
      }

      .cls-2 {
        fill: none;
      }

      .cls-3 {
        fill: #231f20;
      }
    </style>
  </defs>
  <path class="cls-1" d="m484.62,196.94v21.94s-12.6-9.14-21.84-10.09c-7.96-.82-18.27-.07-24.6,4.9-4.29,3.37-10.6,7.96-10.41,17.46.1,5.21,2.79,10.8,8.57,15.82,6.23,5.41,15.21,7.66,20.41,7.35,5.21-.31,13.27-1.74,18.78-4.19,5.51-2.45,9.08-5.93,9.08-5.93v20.21s-5.01,3.2-13.37,6.55c-8.67,3.47-21.64,5.21-31.53,3.06-15.14-3.28-17.84-6.22-23.37-10.1-6.84-4.8-13.06-10-16.43-19.8-1.89-5.5-2.8-18.28-.3-25.82,3.57-10.82,11.77-18.66,19.29-23.17,8.16-4.9,21.33-7.55,31.74-7.65,13.79-.13,24.47,3.32,29.09,5.92,4.9,2.75,4.9,3.55,4.9,3.55Z"/>
  <polygon class="cls-1" points="235.04 169.89 266.72 169.89 266.72 210.62 302.93 170.21 340.75 170.53 295.5 219.03 344.31 271.4 306.16 273.34 267.37 228.73 267.69 272.37 235.36 272.69 235.04 169.89"/>
  <path class="cls-1" d="m150.63,229.69s9.5-1.22,15.63-6.13c6.13-4.91,11.95-9.2,11.19-21.15-.6-9.36-3.99-19.31-22.99-22.53-10.68-1.81-61.15,4.75-61.15,4.75v77.86l27.79,1.38v-31.11l31.21,33.56,32.34.77-34.02-37.4Zm-5.41-17.67c-1.02,3.68-6.74,6.95-10.01,7.36-3.27.41-14.1.09-14.1.09v-21.49s7.3-.23,11.98,0c5.12.25,6.9,1.45,9.35,3.45,2.42,1.97,3.81,6.92,2.78,10.6Z"/>
  <path class="cls-3" d="m194.56,352.77c-26.86-6.07-52.06-14.7-74.89-25.65-22.59-10.84-42.42-23.73-58.94-38.31-16.73-14.77-29.71-30.99-38.59-48.21-9.19-17.8-13.85-36.42-13.85-55.33,0-34.21,15.36-67.43,44.41-96.06,28.29-27.88,68.11-50.15,115.18-64.42l.08.24C89.25,57.15,40.35,118.1,40.35,184.09c0,74.24,60.55,140.36,154.27,168.44l-.06.24ZM165.42,25.81c-45.92,14.28-84.79,36.23-112.54,63.58-29.01,28.59-44.34,61.74-44.34,95.88,0,37.36,18.1,73.1,52.36,103.35,32.82,28.99,77.8,50.77,130.26,63.11-21.17-6.62-40.99-15.37-58.95-26.04-18.77-11.16-35.21-24.22-48.84-38.84-28.3-30.33-43.26-65.86-43.26-102.76,0-33.09,12.21-65.48,35.31-93.69,21.95-26.8,53.03-49.1,90-64.59Z"/>
  <path class="cls-2" d="m407.04,24.22c-35.26-14.12-75.71-22.15-118.71-22.15s-84.75,8.3-120.41,22.85C73.58,53.51,8.41,114.57,8.41,185.27c0,77.19,77.67,142.87,186.17,167.38,14.48,4.34,29.65,7.71,45.35,9.98,14.23,3.86,29.14,6.08,44.52,6.43,1.46.03,2.92.05,4.38.05,1.27,0,2.54-.02,3.8-.05,16.02-.32,31.54-2.66,46.32-6.77,14.22-2.16,27.99-5.22,41.2-9.08,109.84-24.04,188.74-90.15,188.74-167.95,0-71.3-66.26-132.77-161.86-161.05Z"/>
  <path class="cls-2" d="m202.08,347.74c-89.62-25.46-153.18-89.29-153.18-164.04,0-79.86,72.56-147.27,171.95-168.72-68.55,26.87-117.05,93.16-117.05,170.68,0,70.24,39.82,131.24,98.29,162.07Z"/>
  <path class="cls-1" d="m471.55,40.45c-50.61,23.29-114.13,37.16-183.12,37.16s-131.22-13.59-181.58-36.45l-8.11,4.7c52.36,24.06,118.04,38.38,189.37,38.38s138.73-14.69,191.42-39.32l-7.98-4.47Z"/>
  <path class="cls-1" d="m533.74,83.98c-58.58,38.97-146.61,63.76-245.06,63.76s-185.04-24.39-243.61-62.81l-5.87,6.39c60.59,38.63,149.74,63.05,249.14,63.05s190.54-24.97,251.17-64.36l-5.77-6.03Z"/>
  <path class="cls-1" d="m557.13,256.15c-64.48,38.46-160.73,62.88-268.29,62.88s-199.68-23.46-264.12-60.74l13.23,16.59c65.3,31.47,153.17,50.78,250.52,50.78s190.53-20.38,256.29-53.37l12.37-16.14Z"/>
  <path class="cls-1" d="m580.16,183.89C580.16,82.33,450.29,0,290.08,0S0,82.33,0,183.89c0,94.89,113.39,172.99,258.97,182.83-6.46-1.04-12.82-2.4-19.04-4.08-15.7-2.28-30.87-5.64-45.35-9.98C86.09,328.15,8.41,262.47,8.41,185.27,8.41,114.57,73.58,53.51,167.92,24.92,203.58,10.37,244.63,2.07,288.33,2.07s83.45,8.03,118.71,22.15c95.6,28.29,161.86,89.76,161.86,161.05,0,77.8-78.9,143.91-188.74,167.95-13.21,3.87-26.98,6.92-41.2,9.08-7.09,1.97-14.36,3.53-21.77,4.65,147.49-8.67,262.97-87.32,262.97-183.08Z"/>
  <path class="cls-2" d="m258.97,366.72c8.32,1.34,16.82,2.15,25.48,2.35,1.46.03,2.92.05,4.38.05,1.27,0,2.54-.02,3.8-.05,8.33-.17,16.52-.89,24.55-2.11-8.93.53-17.96.81-27.11.81-10.51,0-20.89-.36-31.11-1.05Z"/>
  <rect class="cls-2" x="97.95" y="169.57" width="19.88" height="9.35"/>
  <path class="cls-1" d="m407.04,24.22c-35.26-14.12-75.71-22.15-118.71-22.15s-84.75,8.3-120.41,22.85C91.76,55.99,40.23,115.62,40.23,184.09c0,76.19,63.81,141.43,154.35,168.56,14.48,4.34,29.65,7.71,45.35,9.98,6.22,1.68,12.58,3.04,19.04,4.08,10.22.69,20.6,1.05,31.11,1.05,9.14,0,18.18-.28,27.11-.81,7.41-1.13,14.68-2.68,21.77-4.65,14.22-2.16,27.99-5.22,41.2-9.08,91.56-26.78,156.27-92.41,156.27-169.13,0-68.98-52.3-128.99-129.39-159.87Zm-165.71,331.9c-45.96-12.58-84.5-42.91-107.64-83.07h-7.56c17.35,31.68,43.83,57.75,75.95,74.69-89.62-25.46-153.18-89.29-153.18-164.04,0-79.86,72.56-147.27,171.95-168.72-63.93,25.06-110.41,84.4-116.39,155.17h6.46C118,87,182.97,20.21,265.74,9.53c-41.53,20.26-72.21,91.64-72.21,176.58,0,79.45,26.85,147.01,64.3,172-5.56-.52-11.06-1.19-16.5-1.99Zm63.75,3c-4.12.21-8.27.33-12.45.38v-77.98h-8.18v77.98c-3.57-.04-7.12-.15-10.64-.3-41.79-14.52-73.55-86.66-73.55-173.48,0-94.06,37.27-170.89,84.19-175.89v155.06h8.18V9.7c47.65,3.45,85.75,80.93,85.75,176.02,0,86.65-31.63,158.69-73.3,173.4Zm71.09-11.69c28.65-15.24,52.77-37.75,69.89-65.02h-7.49c-23.3,35.19-58.89,61.67-100.73,73.42-5.11.78-10.28,1.44-15.5,1.98,37.21-25.23,63.84-92.57,63.84-171.69,0-84.52-30.38-155.6-71.6-176.27,84.94,12.06,150.6,83.3,153.12,170.25h6.08c-2.25-74.89-49.77-138.5-116.36-164.86,98.81,21.7,170.83,88.91,170.83,168.47,0,74.44-63.04,138.07-152.09,163.73Z"/>
</svg>