<?xml version="1.0" encoding="utf-8"?>
<!-- Generator: Adobe Illustrator 16.0.0, SVG Export Plug-In . SVG Version: 6.00 Build 0)  -->
<!DOCTYPE svg PUBLIC "-//W3C//DTD SVG 1.1//EN" "http://www.w3.org/Graphics/SVG/1.1/DTD/svg11.dtd">
<svg version="1.1" id="Layer_1" xmlns="http://www.w3.org/2000/svg" xmlns:xlink="http://www.w3.org/1999/xlink" x="0px" y="0px"
	 width="254.777px" height="38px" viewBox="0 0 254.777 38" enable-background="new 0 0 254.777 38" xml:space="preserve">
<g id="null">
	<g id="Home" transform="translate(-34.000000, -24.000000)">
		<g id="Group-2" transform="translate(34.000000, 23.999790)">
			<g id="Path-2">
			</g>
			<defs>
				<filter id="Adobe_OpacityMaskFilter" filterUnits="userSpaceOnUse" x="0" y="0" width="254.777" height="38">
					<feColorMatrix  type="matrix" values="1 0 0 0 0  0 1 0 0 0  0 0 1 0 0  0 0 0 1 0"/>
				</filter>
			</defs>
			<mask maskUnits="userSpaceOnUse" x="0" y="0" width="254.777" height="38" id="mask-z5u-4-6xqo-2">
				<g filter="url(#Adobe_OpacityMaskFilter)">
					<polygon id="path-z5u-4-6xqo-1" fill="#FFFFFF" points="0,38 254.773,38 254.773,0 0,0 					"/>
				</g>
			</mask>
			<g id="Group-1" mask="url(#mask-z5u-4-6xqo-2)">
				<g id="Path-1" transform="translate(0.000070, 0.000000)">
					<path fill="#091E2C" d="M100.065,13.143h-3.168v17.976h3.168V13.143z M10.151,7.187H8.617c0,3.45,0,5.174,0,5.174
						c0,0.473,0.072,0.897,0.216,1.272c0.144,0.375,0.353,0.692,0.626,0.952c0.273,0.26,0.602,0.46,0.986,0.603
						c0.385,0.142,0.821,0.213,1.31,0.213c0.486,0,0.922-0.071,1.308-0.213c0.385-0.143,0.712-0.346,0.983-0.609
						c0.27-0.263,0.478-0.583,0.623-0.958c0.146-0.375,0.219-0.794,0.219-1.26c0,0,0-1.725,0-5.174h-1.512c0,3.492,0,5.238,0,5.238
						c0,0.527-0.134,0.938-0.404,1.231c-0.269,0.294-0.674,0.441-1.217,0.441c-0.535,0-0.936-0.148-1.203-0.447
						c-0.267-0.298-0.4-0.707-0.4-1.226C10.151,12.426,10.151,10.679,10.151,7.187z M23.006,9.495
						c-0.141,0.519-0.211,1.098-0.211,1.736c0,0.604,0.068,1.161,0.205,1.67c0.136,0.51,0.341,0.949,0.614,1.318
						c0.273,0.369,0.615,0.659,1.024,0.868c0.41,0.21,0.885,0.314,1.428,0.314c0.873,0,1.515-0.303,1.926-0.912
						c0,0,0.012,0.245,0.035,0.733h1.431v-4.384h-3.19v1.298h1.65c0,0.23,0,0.346,0,0.346c0,0.557-0.155,0.966-0.464,1.226
						c-0.31,0.259-0.724,0.389-1.244,0.389c-0.254,0-0.487-0.041-0.701-0.124c-0.213-0.083-0.399-0.198-0.557-0.346
						c-0.158-0.147-0.282-0.325-0.372-0.53s-0.136-0.43-0.136-0.672V9.968c0-0.504,0.162-0.906,0.485-1.206
						c0.323-0.299,0.744-0.45,1.263-0.45c0.977,0,1.509,0.426,1.598,1.275h1.535c-0.023-0.392-0.115-0.748-0.277-1.067
						s-0.374-0.591-0.637-0.816c-0.264-0.225-0.574-0.396-0.932-0.513c-0.358-0.118-0.75-0.176-1.177-0.176
						c-0.6,0-1.12,0.1-1.56,0.3c-0.44,0.2-0.805,0.483-1.093,0.851C23.361,8.532,23.146,8.976,23.006,9.495 M32.731,31.118H19.329
						v-2.454c10.153,0,15.23,0,15.23,0C34.017,29.533,33.406,30.354,32.731,31.118 M34.959,28.005H19.329v-2.452
						c11.187,0,16.78,0,16.78,0C35.783,26.403,35.403,27.223,34.959,28.005 M36.351,24.895H19.329V22.44c11.785,0,17.677,0,17.677,0
						C36.845,23.281,36.622,24.098,36.351,24.895 M37.106,21.781H19.329v-2.452c11.997,0,17.995,0,17.995,0
						C37.309,20.162,37.229,20.979,37.106,21.781 M37.323,18.671H19.329c0-11.997,0-17.996,0-17.996
						C29.178,0.852,37.147,8.822,37.323,18.671 M19.329,31.777c8.535,0,12.803,0,12.803,0c-0.888,0.913-1.864,1.738-2.924,2.452
						c0,0-3.293,0-9.88,0L19.329,31.777z M19.329,34.887c5.864,0,8.796,0,8.796,0c-2.602,1.501-5.598,2.381-8.796,2.438
						C19.329,37.324,19.329,36.512,19.329,34.887z M18.669,37.324c-5.014-0.089-9.54-2.195-12.802-5.548c0,0,4.268,0,12.802,0
						C18.669,35.475,18.669,37.324,18.669,37.324z M18.669,31.118c-8.934,0-13.401,0-13.401,0c-1.437-1.627-2.586-3.505-3.378-5.565
						c0,0,5.593,0,16.779,0V31.118z M18.669,24.895c-11.347,0-17.021,0-17.021,0c-0.598-1.754-0.938-3.621-0.973-5.565
						c0,0,5.998,0,17.994,0V24.895z M18.669,18.671c-11.996,0-17.994,0-17.994,0C0.851,8.822,8.821,0.852,18.669,0.676
						C18.669,0.676,18.669,6.674,18.669,18.671z M37.999,19c0-10.476-8.524-19-19-19C8.522,0,0,8.524,0,19
						c0,10.477,8.522,19,18.999,19C29.475,38,37.999,29.477,37.999,19 M73.552,26.375c0.426-1.12,0.64-2.386,0.64-3.797
						c0,0,0-5.148,0-15.445h-3.358c0,10.469,0,15.703,0,15.703c0,1.825-0.493,3.264-1.481,4.313
						c-0.987,1.05-2.399,1.575-4.235,1.575c-1.825,0-3.226-0.521-4.201-1.566s-1.463-2.486-1.463-4.322c0,0,0-5.234,0-15.703h-3.358
						c0,10.296,0,15.445,0,15.445c0,1.411,0.212,2.677,0.637,3.797c0.425,1.118,1.03,2.065,1.816,2.84
						c0.787,0.775,1.737,1.375,2.85,1.8c1.113,0.425,2.354,0.638,3.719,0.638c1.371,0,2.618-0.213,3.742-0.638
						c1.124-0.425,2.079-1.024,2.869-1.8C72.518,28.441,73.125,27.493,73.552,26.375 M89.677,31.117h3.168
						c0-7.988,0-11.983,0-11.983c0-1.16-0.143-2.144-0.429-2.953c-0.286-0.81-0.687-1.473-1.202-1.989
						c-0.515-0.517-1.127-0.893-1.837-1.128s-1.499-0.353-2.369-0.353c-1.366,0-2.479,0.301-3.34,0.904
						c-0.861,0.602-1.538,1.432-2.031,2.488c0,0,0-0.987,0-2.961h-3.168v17.975h3.168c0-7.002,0-10.502,0-10.502
						c0-0.781,0.111-1.501,0.335-2.161c0.225-0.66,0.537-1.231,0.938-1.713c0.402-0.482,0.873-0.852,1.412-1.11
						s1.137-0.387,1.791-0.387c1.366,0,2.302,0.375,2.807,1.128c0.505,0.751,0.758,1.788,0.758,3.107
						C89.677,19.479,89.677,23.359,89.677,31.117z M96.828,10.456h3.306V7.134h-3.306V10.456z M116.288,23.646
						c0,1.55-0.421,2.829-1.264,3.839c-0.842,1.011-2.059,1.516-3.652,1.516c-0.664,0-1.271-0.1-1.822-0.301
						c-0.549-0.201-1.031-0.477-1.443-0.827c-0.413-0.35-0.736-0.777-0.971-1.282s-0.352-1.063-0.352-1.67v-5.579
						c0-0.608,0.117-1.165,0.352-1.67c0.235-0.504,0.559-0.935,0.971-1.291s0.897-0.634,1.453-0.835
						c0.556-0.201,1.16-0.301,1.813-0.301c1.593,0,2.811,0.508,3.652,1.523c0.842,1.016,1.264,2.299,1.264,3.849V23.646z
						 M116.288,37.11h3.168V13.143h-3.168c0,1.951,0,2.926,0,2.926c-0.562-1.09-1.324-1.922-2.286-2.496
						c-0.963-0.574-2.114-0.861-3.455-0.861c-1.196,0-2.242,0.247-3.139,0.74c-0.896,0.494-1.638,1.162-2.225,2.006
						c-0.586,0.843-1.025,1.842-1.319,2.996c-0.293,1.153-0.439,2.38-0.439,3.676c0,1.309,0.146,2.534,0.439,3.677
						c0.293,1.142,0.738,2.137,1.336,2.986c0.598,0.85,1.348,1.521,2.25,2.015c0.902,0.493,1.962,0.741,3.181,0.741
						c1.33,0,2.464-0.291,3.403-0.87s1.69-1.409,2.251-2.487C116.288,28.192,116.288,31.164,116.288,37.11z M134.604,31.117h3.169
						V13.143h-3.169c0,7.002,0,10.503,0,10.503c0,1.573-0.394,2.858-1.18,3.856C132.639,28.501,131.574,29,130.23,29
						c-1.342,0-2.267-0.381-2.771-1.145c-0.505-0.764-0.757-1.794-0.757-3.091c0,0,0-3.874,0-11.622h-3.168
						c0,7.988,0,11.983,0,11.983c0,1.147,0.146,2.13,0.439,2.944c0.292,0.815,0.697,1.48,1.214,1.998
						c0.516,0.516,1.133,0.893,1.851,1.127c0.717,0.235,1.49,0.354,2.316,0.354c1.354,0,2.444-0.302,3.271-0.904
						c0.826-0.603,1.486-1.432,1.979-2.488C134.604,28.156,134.604,29.144,134.604,31.117z M144.489,20.477c0-0.665,0-0.998,0-0.998
						c0-0.654,0.117-1.246,0.353-1.773c0.234-0.528,0.559-0.976,0.971-1.343c0.412-0.367,0.882-0.646,1.409-0.835
						c0.526-0.189,1.083-0.284,1.667-0.284s1.143,0.094,1.676,0.284c0.532,0.189,1.002,0.468,1.408,0.835
						c0.406,0.368,0.729,0.815,0.963,1.343s0.352,1.119,0.352,1.773c0,0,0,0.333,0,0.998H144.489z M144.489,23.008h12.052
						c0-1.125,0-1.688,0-1.688c0-1.205-0.159-2.33-0.479-3.375c-0.319-1.044-0.793-1.954-1.422-2.729
						c-0.627-0.775-1.42-1.386-2.379-1.834s-2.084-0.671-3.373-0.671c-1.242,0-2.339,0.235-3.293,0.706
						c-0.953,0.471-1.767,1.116-2.438,1.937c-0.673,0.821-1.179,1.813-1.517,2.978c-0.34,1.166-0.51,2.431-0.51,3.797
						c0,1.39,0.158,2.657,0.475,3.806c0.316,1.147,0.799,2.135,1.448,2.961s1.46,1.476,2.431,1.946
						c0.971,0.47,2.105,0.706,3.404,0.706c0.959,0,1.871-0.145,2.739-0.432c0.868-0.286,1.647-0.693,2.338-1.222
						s1.253-1.168,1.687-1.92s0.685-1.609,0.752-2.573h-3.151c-0.114,1.25-0.584,2.162-1.409,2.736
						c-0.824,0.574-1.799,0.861-2.922,0.861c-0.561,0-1.105-0.088-1.632-0.268c-0.526-0.178-1.002-0.441-1.427-0.791
						c-0.424-0.351-0.758-0.777-1.004-1.283c-0.247-0.505-0.37-1.084-0.37-1.738C144.489,24.92,144.489,24.282,144.489,23.008z
						 M183.723,31.117h3.202V18.325h-8.781v2.996h5.423c0,1.08,0,1.619,0,1.619c0,1.883-0.504,3.317-1.514,4.305
						c-1.012,0.986-2.445,1.48-4.306,1.48c-0.884,0-1.707-0.146-2.47-0.439c-0.764-0.293-1.424-0.706-1.98-1.239
						c-0.557-0.534-0.993-1.156-1.309-1.868c-0.316-0.712-0.474-1.492-0.474-2.342v-7.404c0-0.872,0.151-1.667,0.456-2.385
						s0.721-1.334,1.248-1.851c0.527-0.517,1.162-0.921,1.902-1.214s1.559-0.439,2.454-0.439c1.677,0,2.989,0.382,3.942,1.146
						s1.51,1.851,1.671,3.263h3.357c-0.069-1.136-0.339-2.155-0.811-3.056s-1.085-1.67-1.838-2.307
						c-0.753-0.638-1.642-1.125-2.665-1.463c-1.024-0.339-2.135-0.508-3.33-0.508c-1.722,0-3.217,0.287-4.484,0.861
						c-1.27,0.574-2.314,1.406-3.135,2.497s-1.438,2.425-1.851,4.003c-0.413,1.578-0.62,3.366-0.62,5.363
						c0,1.882,0.218,3.581,0.654,5.097s1.064,2.807,1.885,3.874c0.821,1.067,1.831,1.892,3.031,2.471
						c1.199,0.579,2.563,0.87,4.089,0.87s2.772-0.281,3.737-0.845c0.963-0.562,1.75-1.302,2.357-2.221
						C183.566,28.587,183.619,29.431,183.723,31.117z M194.182,15.88h5.475v-2.737h-8.643v17.975h3.168V15.88z M213.774,24.92
						c0,0.607-0.13,1.165-0.387,1.67c-0.259,0.505-0.599,0.933-1.022,1.282c-0.424,0.351-0.922,0.626-1.495,0.827
						S209.695,29,209.064,29c-0.641,0-1.248-0.1-1.821-0.301s-1.071-0.477-1.495-0.827c-0.424-0.35-0.765-0.777-1.022-1.282
						c-0.257-0.505-0.387-1.063-0.387-1.67v-5.579c0-0.608,0.13-1.165,0.387-1.67c0.258-0.504,0.599-0.935,1.022-1.291
						s0.926-0.634,1.504-0.835c0.578-0.201,1.184-0.301,1.813-0.301c0.631,0,1.232,0.1,1.806,0.301
						c0.573,0.201,1.071,0.479,1.495,0.835s0.764,0.787,1.022,1.291c0.257,0.505,0.387,1.063,0.387,1.67V24.92z M216.633,25.936
						c0.332-1.148,0.498-2.416,0.498-3.806c0-1.366-0.166-2.631-0.498-3.797c-0.332-1.165-0.832-2.157-1.496-2.978
						c-0.665-0.821-1.502-1.466-2.512-1.937c-1.009-0.471-2.195-0.706-3.561-0.706c-1.367,0-2.557,0.235-3.567,0.706
						s-1.853,1.116-2.524,1.937c-0.673,0.821-1.172,1.813-1.5,2.978c-0.328,1.166-0.491,2.431-0.491,3.797
						c0,1.39,0.163,2.657,0.491,3.806c0.328,1.147,0.827,2.135,1.5,2.961c0.672,0.826,1.514,1.476,2.524,1.946
						c1.011,0.47,2.2,0.706,3.567,0.706c1.354,0,2.537-0.236,3.553-0.706c1.015-0.471,1.854-1.12,2.52-1.946
						S216.301,27.083,216.633,25.936 M231.393,31.117h3.169V13.143h-3.169c0,7.002,0,10.503,0,10.503
						c0,1.573-0.393,2.858-1.179,3.856c-0.786,0.999-1.851,1.498-3.194,1.498c-1.343,0-2.267-0.381-2.771-1.145
						c-0.506-0.764-0.758-1.794-0.758-3.091c0,0,0-3.874,0-11.622h-3.168c0,7.988,0,11.983,0,11.983c0,1.147,0.146,2.13,0.439,2.944
						c0.292,0.815,0.697,1.48,1.213,1.998c0.517,0.516,1.134,0.893,1.852,1.127c0.717,0.235,1.489,0.354,2.314,0.354
						c1.355,0,2.445-0.302,3.272-0.904s1.486-1.432,1.979-2.488C231.393,28.156,231.393,29.144,231.393,31.117z M251.42,24.92
						c0,1.217-0.428,2.201-1.283,2.952C249.281,28.625,248.182,29,246.84,29c-1.596,0-2.818-0.505-3.668-1.516
						c-0.85-1.01-1.273-2.289-1.273-3.839v-3.03c0-1.55,0.424-2.833,1.273-3.849c0.85-1.016,2.072-1.523,3.668-1.523
						c1.342,0,2.441,0.378,3.297,1.136c0.855,0.757,1.283,1.745,1.283,2.961V24.92z M254.777,22.13c0-1.296-0.146-2.522-0.439-3.676
						c-0.293-1.154-0.734-2.152-1.326-2.996c-0.591-0.844-1.334-1.513-2.229-2.006c-0.896-0.493-1.939-0.74-3.134-0.74
						c-1.366,0-2.525,0.29-3.478,0.869c-0.952,0.58-1.711,1.409-2.272,2.488c0,0,0-0.976,0-2.927h-3.168V37.11h3.168
						c0-5.945,0-8.918,0-8.918c0.562,1.078,1.32,1.908,2.272,2.487c0.952,0.58,2.111,0.87,3.478,0.87
						c1.205,0,2.253-0.248,3.143-0.741s1.63-1.165,2.221-2.015c0.592-0.849,1.033-1.842,1.326-2.979S254.777,23.45,254.777,22.13"/>
				</g>
			</g>
		</g>
	</g>
</g>
</svg>
